<svg version="1.1" xmlns="http://www.w3.org/2000/svg" xmlns:xlink="http://www.w3.org/1999/xlink" viewBox="0 0 172 172"><g fill="none" fill-rule="nonzero" stroke="none" stroke-width="1" stroke-linecap="butt" stroke-linejoin="miter" stroke-miterlimit="10" stroke-dasharray="" stroke-dashoffset="0" font-family="none" font-weight="none" font-size="none" text-anchor="none" style="mix-blend-mode: normal"><path d="M0,172v-172h172v172z" fill="none"></path><g id="original-icon" fill="#ffffff"><path d="M71.66667,14.33333l-7.16667,7.16667h-28.66667c-3.956,0 -7.16667,3.21067 -7.16667,7.16667c0,3.956 3.21067,7.16667 7.16667,7.16667h100.33333c3.956,0 7.16667,-3.21067 7.16667,-7.16667c0,-3.956 -3.21067,-7.16667 -7.16667,-7.16667h-28.66667l-7.16667,-7.16667zM35.83333,50.16667v93.16667c0,7.88333 6.45,14.33333 14.33333,14.33333h71.66667c7.88333,0 14.33333,-6.45 14.33333,-14.33333v-93.16667zM67.43945,74.63411c1.82929,0 3.65914,0.6917 5.05306,2.08561l13.50749,13.50749l13.50749,-13.50749c2.78783,-2.78783 7.31828,-2.78783 10.10612,0c2.78783,2.78783 2.78783,7.31828 0,10.10612l-13.50749,13.50749l13.50749,13.50749c2.78783,2.78783 2.78783,7.31828 0,10.10612c-2.78783,2.78783 -7.31828,2.78783 -10.10612,0l-13.50749,-13.50749l-13.50749,13.50749c-2.78783,2.78783 -7.31828,2.78783 -10.10612,0c-2.78783,-2.78783 -2.78783,-7.31828 0,-10.10612l13.50749,-13.50749l-13.50749,-13.50749c-2.78783,-2.78783 -2.78783,-7.31828 0,-10.10612c1.39392,-1.39392 3.22377,-2.08561 5.05306,-2.08561z"></path></g></g></svg>