<svg version="1.1" xmlns="http://www.w3.org/2000/svg" xmlns:xlink="http://www.w3.org/1999/xlink" viewBox="0 0 172 172"><g fill="none" fill-rule="nonzero" stroke="none" stroke-width="1" stroke-linecap="butt" stroke-linejoin="miter" stroke-miterlimit="10" stroke-dasharray="" stroke-dashoffset="0" font-family="none" font-weight="none" font-size="none" text-anchor="none" style="mix-blend-mode: normal"><path d="M0,172v-172h172v172z" fill="none"></path><g fill="#ffffff"><path d="M43,14.33333c-7.91917,0 -14.33333,6.41417 -14.33333,14.33333v7.16667c0,3.956 3.21067,7.16667 7.16667,7.16667h7.16667c4.50783,0 8.75487,2.12693 11.46387,5.73893l8.5944,11.44987c10.234,13.64533 15.77507,30.24736 15.77507,47.3112v18.11263l6.41081,12.82161c0.50167,0.99617 0.75586,2.09457 0.75586,3.20541v8.86035c0,3.956 3.21067,7.16667 7.16667,7.16667h35.83333c7.91917,0 14.33333,-6.41417 14.33333,-14.33333v-80.0651c0,-3.79833 -1.51172,-7.44661 -4.19922,-10.13411l-34.60156,-34.60156c-2.68751,-2.6875 -6.33578,-4.19922 -10.13412,-4.19922zM93.16667,25.08333l39.41667,39.41667h-32.25c-3.956,0 -7.16667,-3.21067 -7.16667,-7.16667zM43,57.33333c-1.21475,0 -2.42357,0.54511 -3.2334,1.6237l-5.361,7.15267c-8.37067,11.16566 -12.9056,24.7353 -12.9056,38.6888v24.2015l-6.41081,12.82161c-0.50167,0.99617 -0.75586,2.09457 -0.75586,3.20541v5.47298c0,3.956 3.21067,7.16667 7.16667,7.16667h7.16667c3.956,0 7.16667,-3.21067 7.16667,-7.16667v-7.16667h14.33333v7.16667c0,3.956 3.21067,7.16667 7.16667,7.16667h7.16667c3.956,0 7.16667,-3.21067 7.16667,-7.16667v-5.47298c0,-1.11083 -0.25419,-2.20924 -0.75586,-3.20541l-6.41081,-12.82161v-24.2015c0,-13.9535 -4.53493,-27.53714 -12.9056,-38.7028l-5.361,-7.13867c-0.80983,-1.07858 -2.01865,-1.6237 -3.2334,-1.6237zM43,98.54167c4.945,0 8.95833,4.01333 8.95833,8.95833c0,4.945 -4.01333,8.95833 -8.95833,8.95833c-4.945,0 -8.95833,-4.01333 -8.95833,-8.95833c0,-4.945 4.01333,-8.95833 8.95833,-8.95833z"></path></g></g></svg>