<svg version="1.1" xmlns="http://www.w3.org/2000/svg" xmlns:xlink="http://www.w3.org/1999/xlink" viewBox="0 0 172 172"><g fill="none" fill-rule="nonzero" stroke="none" stroke-width="1" stroke-linecap="butt" stroke-linejoin="miter" stroke-miterlimit="10" stroke-dasharray="" stroke-dashoffset="0" font-family="none" font-weight="none" font-size="none" text-anchor="none" style="mix-blend-mode: normal"><path d="M0,172v-172h172v172z" fill="none"></path><g fill="#ffffff"><path d="M50.16667,28.66667c-19.70487,0 -35.83333,16.12847 -35.83333,35.83333v64.5c0,7.83362 6.49972,14.33333 14.33333,14.33333h43h7.16667h18.2806c2.65883,0 5.19785,-1.05462 7.08268,-2.93945l50.5446,-50.5446c1.87767,-1.87767 2.92545,-4.40985 2.92545,-7.06868v-18.2806c0,-19.78717 -16.04617,-35.83333 -35.83333,-35.83333zM50.16667,43c11.87517,0 21.5,9.62483 21.5,21.5v64.5h-43v-64.5c0,-11.95747 9.54253,-21.5 21.5,-21.5zM50.16667,64.5c-3.956,0 -7.16667,3.21067 -7.16667,7.16667c0,3.956 3.21067,7.16667 7.16667,7.16667c3.956,0 7.16667,-3.21067 7.16667,-7.16667c0,-3.956 -3.21067,-7.16667 -7.16667,-7.16667zM159.15039,107.5c-0.91644,0 -1.83477,0.35105 -2.53352,1.0498l-7.16667,7.16667l14.33333,14.33333l7.16667,-7.16667c1.3975,-1.3975 1.3975,-3.66956 0,-5.06706l-9.26628,-9.26628c-0.70233,-0.69875 -1.61709,-1.0498 -2.53353,-1.0498zM144.38314,120.78353l-36.88314,36.88314v14.33333h14.33333l36.88314,-36.88314z"></path></g></g></svg>