<svg version="1.1" xmlns="http://www.w3.org/2000/svg" xmlns:xlink="http://www.w3.org/1999/xlink" viewBox="0 0 172 172"><g fill="none" fill-rule="nonzero" stroke="none" stroke-width="1" stroke-linecap="butt" stroke-linejoin="miter" stroke-miterlimit="10" stroke-dasharray="" stroke-dashoffset="0" font-family="none" font-weight="none" font-size="none" text-anchor="none" style="mix-blend-mode: normal"><path d="M0,172v-172h172v172z" fill="none"></path><g fill="#ffffff"><path d="M78.83333,14.33333v35.83333h-21.5l28.66667,28.66667l28.66667,-28.66667h-21.5v-35.83333zM32.02604,64.5l-15.90104,37.40104c-1.14778,2.6875 -1.79167,5.57097 -1.79167,8.51042v32.92188c0,7.89453 6.43881,14.33333 14.33333,14.33333h114.66667c7.89453,0 14.33333,-6.4388 14.33333,-14.33333v-32.92187c0,-2.93945 -0.64388,-5.85091 -1.79167,-8.51042l-15.90104,-37.40104h-15.67708l15.22917,35.83333h-107.05208l15.22917,-35.83333zM129,118.25c5.9349,0 10.75,4.8151 10.75,10.75c0,5.9349 -4.8151,10.75 -10.75,10.75c-5.9349,0 -10.75,-4.8151 -10.75,-10.75c0,-5.9349 4.8151,-10.75 10.75,-10.75z"></path></g></g></svg>