<svg version="1.1" xmlns="http://www.w3.org/2000/svg" xmlns:xlink="http://www.w3.org/1999/xlink" viewBox="0 0 172 172"><g fill="none" fill-rule="nonzero" stroke="none" stroke-width="1" stroke-linecap="butt" stroke-linejoin="miter" stroke-miterlimit="10" stroke-dasharray="" stroke-dashoffset="0" font-family="none" font-weight="none" font-size="none" text-anchor="none" style="mix-blend-mode: normal"><path d="M0,172v-172h172v172z" fill="none"></path><g fill="#ffffff"><path d="M43,14.33333c-7.91917,0 -14.33333,6.41417 -14.33333,14.33333v114.66667c0,7.91917 6.41417,14.33333 14.33333,14.33333h20.85612c-2.40083,-3.25367 -3.9093,-5.87532 -4.63314,-7.22265c-0.24367,-0.4515 -0.43258,-0.82316 -0.48991,-0.93783c-1.86333,-4.11367 -1.86333,-8.22487 0,-12.3457c0.71667,-1.49783 18.09359,-36.82715 63.10026,-36.82715c2.47967,0 4.859,0.13493 7.16667,0.34993c5.1815,0.45867 9.9545,1.3835 14.33333,2.6735v-40.08854c0,-3.79833 -1.51172,-7.44661 -4.19922,-10.13411l-34.60156,-34.60156c-2.68751,-2.6875 -6.33578,-4.19922 -10.13412,-4.19922zM93.16667,24.76139l39.41667,39.73861h-32.25c-3.956,0 -7.16667,-3.21067 -7.16667,-7.16667zM121.83333,114.66667c-28.3585,0 -42.92957,17.30884 -48.02507,25.02735c-1.46917,2.22166 -1.46917,5.05698 0,7.27864c5.0955,7.71851 19.66657,25.02735 48.02507,25.02735c28.3585,0 42.92957,-17.30884 48.02507,-25.02735c1.46917,-2.22166 1.46917,-5.05698 0,-7.27864c-5.0955,-7.71851 -19.66657,-25.02735 -48.02507,-25.02735zM121.83333,129c7.912,0 14.33333,6.42133 14.33333,14.33333c0,7.912 -6.42133,14.33333 -14.33333,14.33333c-7.912,0 -14.33333,-6.42133 -14.33333,-14.33333c0,-7.912 6.42133,-14.33333 14.33333,-14.33333z"></path></g></g></svg>