<svg version="1.1" xmlns="http://www.w3.org/2000/svg" xmlns:xlink="http://www.w3.org/1999/xlink" viewBox="0 0 172 172"><g fill="none" fill-rule="nonzero" stroke="none" stroke-width="1" stroke-linecap="butt" stroke-linejoin="miter" stroke-miterlimit="10" stroke-dasharray="" stroke-dashoffset="0" font-family="none" font-weight="none" font-size="none" text-anchor="none" style="mix-blend-mode: normal"><path d="M0,172v-172h172v172z" fill="none"></path><g fill="#ffffff"><path d="M43,14.33333c-7.91917,0 -14.33333,6.41417 -14.33333,14.33333v14.33333c0,3.956 3.21067,7.16667 7.16667,7.16667h100.33333c3.956,0 7.16667,-3.21067 7.16667,-7.16667v-14.33333c0,-7.91917 -6.41417,-14.33333 -14.33333,-14.33333zM35.83333,64.5c-3.956,0 -7.16667,3.21067 -7.16667,7.16667v28.66667c0,3.956 3.21067,7.16667 7.16667,7.16667h40.04655c8.50683,-21.0055 29.06878,-35.83333 53.12011,-35.83333c4.95933,0 9.74667,0.69315 14.33333,1.87565v-1.87565c0,-3.956 -3.21067,-7.16667 -7.16667,-7.16667zM129.014,86c-23.66165,0 -43,19.33835 -43,43c0,8.94027 2.76323,17.27286 7.46061,24.1735l-6.60677,6.60677c-1.86333,1.86333 -0.53773,5.05306 2.0996,5.05306h17.27279c2.35392,0.4933 4.79834,-0.22688 6.50879,-1.91764c1.78583,-1.76417 2.51856,-4.33405 1.93164,-6.77474v-17.00684c0,-2.63733 -3.18973,-3.95577 -5.05306,-2.0996l-5.73893,5.73893c-2.24031,-4.0799 -3.54134,-8.75481 -3.54134,-13.77344c0,-15.91269 12.75399,-28.66667 28.66667,-28.66667c15.91269,0 28.66667,12.75398 28.66667,28.66667c0,13.94294 -9.86343,25.44213 -22.92774,28.09277c-3.88073,0.78465 -6.3906,4.56669 -5.60595,8.44743c0.78465,3.88073 4.56669,6.3906 8.44743,5.60595c19.64436,-3.98568 34.41959,-21.41676 34.41959,-42.14616c0,-23.66165 -19.33835,-43 -43,-43zM35.83333,121.83333c-3.956,0 -7.16667,3.21067 -7.16667,7.16667v14.33333c0,7.91917 6.41417,14.33333 14.33333,14.33333h36.39323c-4.88767,-8.44233 -7.72656,-18.2105 -7.72656,-28.66667c0,-2.4295 0.19607,-4.816 0.48991,-7.16667z"></path></g></g></svg>