<svg version="1.1" xmlns="http://www.w3.org/2000/svg" xmlns:xlink="http://www.w3.org/1999/xlink" width="48px" height="48px" viewBox="0,0,256,256"><g fill="#ffffff" fill-rule="nonzero" stroke="none" stroke-width="1" stroke-linecap="butt" stroke-linejoin="miter" stroke-miterlimit="10" stroke-dasharray="" stroke-dashoffset="0" font-family="none" font-weight="none" font-size="none" text-anchor="none" style="mix-blend-mode: normal"><g transform="scale(5.33333,5.33333)"><path d="M40.288,10.202c-0.163,-0.216 -0.381,-0.384 -0.632,-0.486l-0.716,-0.292c-2.728,-1.113 -4.698,-1.917 -7.042,-2.356c-1.409,-0.264 -2.929,0.539 -3.707,1.953c-1.283,-0.119 -2.64,-0.159 -4.149,-0.12c-1.567,-0.037 -2.936,0 -4.221,0.12c-0.766,-1.391 -2.281,-2.174 -3.692,-1.912c-2.525,0.472 -4.604,1.318 -7.773,2.606c-0.251,0.102 -0.469,0.27 -0.632,0.486c-5.323,7.055 -7.444,14.711 -6.484,23.404c0.052,0.465 0.317,0.879 0.718,1.121c3.552,2.137 6.629,3.603 9.685,4.612c1.474,0.487 3.111,-0.068 3.987,-1.347l1.366,-1.999c2.246,0.567 4.587,0.876 7.011,0.922c2.363,-0.045 4.694,-0.356 6.942,-0.926l1.44,2.047c0.671,0.955 1.736,1.489 2.851,1.489c0.368,0 0.741,-0.058 1.107,-0.179c3.062,-1.009 6.146,-2.477 9.707,-4.619c0.4,-0.241 0.666,-0.656 0.718,-1.121c0.959,-8.694 -1.162,-16.35 -6.484,-23.403zM16.488,27.983c-1.926,0 -3.511,-2.029 -3.511,-4.495c0,-2.466 1.585,-4.495 3.511,-4.495c1.926,0 3.511,2.029 3.511,4.495c0,2.466 -1.585,4.495 -3.511,4.495zM30.488,28.01c-1.908,0 -3.478,-2.041 -3.478,-4.522c0,-2.481 1.57,-4.522 3.478,-4.522c1.908,0 3.478,2.041 3.478,4.522c0,2.481 -1.57,4.522 -3.478,4.522z"></path></g></g></svg>