<svg version="1.1" xmlns="http://www.w3.org/2000/svg" xmlns:xlink="http://www.w3.org/1999/xlink" width="48px" height="48px" viewBox="0,0,256,256"><g fill="#ffffff" fill-rule="nonzero" stroke="none" stroke-width="1" stroke-linecap="butt" stroke-linejoin="miter" stroke-miterlimit="10" stroke-dasharray="" stroke-dashoffset="0" font-family="none" font-weight="none" font-size="none" text-anchor="none" style="mix-blend-mode: normal"><g transform="scale(5.33333,5.33333)"><path d="M44,24c0,8.96 -5.88,16.54 -14,19.08v-5.08c0,-1.71 -0.72,-3.24 -1.86,-4.34c5.24,-0.95 7.86,-4 7.86,-9.66c0,-2.45 -0.5,-4.39 -1.48,-5.9c0.44,-1.71 0.7,-4.14 -0.52,-6.1c-2.36,0 -4.01,1.39 -4.98,2.53c-1.45,-0.35 -3.12,-0.53 -5.02,-0.53c-1.8,0 -3.46,0.2 -4.94,0.61c-0.96,-1.15 -2.64,-2.61 -5.06,-2.61c-1.42,2.28 -0.84,4.74 -0.3,6.12c-1.08,1.51 -1.7,3.45 -1.7,5.88c0,5.66 2.62,8.71 7.86,9.66c-0.67,0.65 -1.19,1.44 -1.51,2.34h-2.35c-1.44,0 -2,-0.64 -2.77,-1.68c-0.77,-1.04 -1.6,-1.74 -2.59,-2.03c-0.53,-0.06 -0.89,0.37 -0.42,0.75c1.57,1.13 1.68,2.98 2.31,4.19c0.57,1.09 1.75,1.77 3.08,1.77h2.39v4.08c-8.12,-2.54 -14,-10.12 -14,-19.08c0,-11.05 8.95,-20 20,-20c11.05,0 20,8.95 20,20z"></path></g></g></svg>