<svg version="1.1" xmlns="http://www.w3.org/2000/svg" xmlns:xlink="http://www.w3.org/1999/xlink" width="48px" height="48px" viewBox="0,0,256,256"><g fill="#ffffff" fill-rule="nonzero" stroke="none" stroke-width="1" stroke-linecap="butt" stroke-linejoin="miter" stroke-miterlimit="10" stroke-dasharray="" stroke-dashoffset="0" font-family="none" font-weight="none" font-size="none" text-anchor="none" style="mix-blend-mode: normal"><g transform="scale(5.33333,5.33333)"><path d="M12.5,6c-3.584,0 -6.5,2.916 -6.5,6.5v23c0,3.584 2.916,6.5 6.5,6.5h23c3.584,0 6.5,-2.916 6.5,-6.5v-23c0,-3.584 -2.916,-6.5 -6.5,-6.5zM13.82813,14h6.4375l4.85742,6.94336l6.01367,-6.94336h2l-7.11133,8.23438l8.23242,11.76563h-6.4375l-5.34961,-7.64844l-6.60547,7.64844h-2.04297l7.74219,-8.94336zM16.93555,15.69531l11.65234,16.60938h2.5625l-11.65234,-16.60938z"></path></g></g></svg>