<svg version="1.1" xmlns="http://www.w3.org/2000/svg" xmlns:xlink="http://www.w3.org/1999/xlink" width="48px" height="48px" viewBox="0,0,256,256"><g fill="#ffffff" fill-rule="nonzero" stroke="none" stroke-width="1" stroke-linecap="butt" stroke-linejoin="miter" stroke-miterlimit="10" stroke-dasharray="" stroke-dashoffset="0" font-family="none" font-weight="none" font-size="none" text-anchor="none" style="mix-blend-mode: normal"><g transform="scale(5.33333,5.33333)"><path d="M24,4c-0.07,0 -0.1507,-0.00023 -0.2207,0.00977c-2.3,0.26 -4.71898,4.56023 -5.95898,10.99023h12.35938c-1.24,-6.43 -3.65898,-10.73023 -5.95898,-10.99023c-0.07,-0.01 -0.1507,-0.00977 -0.2207,-0.00977zM18.30078,4.83008c-5.32,1.57 -9.71016,5.29992 -12.16016,10.16992h8.62891c0.7,-4 1.89125,-7.61992 3.53125,-10.16992zM29.69922,4.83008c1.64,2.55 2.83125,6.16992 3.53125,10.16992h8.62891c-2.45,-4.87 -6.84016,-8.59992 -12.16016,-10.16992zM14.63867,18.02734c-0.5987,0.03087 -1.0912,0.4824 -1.17383,1.07617l-0.82227,5.1582l-1.49609,-3.45703c-0.19843,-0.45647 -0.64875,-0.75174 -1.14648,-0.75174c-0.49774,0 -0.94805,0.29527 -1.14648,0.75174l-1.49609,3.45703l-0.82227,-5.1582c-0.08739,-0.60266 -0.59631,-1.05467 -1.20508,-1.07031c-0.37429,-0.00954 -0.73314,0.14918 -0.97789,0.43251c-0.24475,0.28334 -0.34962,0.66145 -0.28578,1.03038l1.5,9.40039c0.08841,0.54806 0.52766,0.97217 1.07849,1.04131c0.55083,0.06914 1.08126,-0.23326 1.30237,-0.74248l2.05273,-4.74805l2.05273,4.74805c0.22111,0.50922 0.75155,0.81162 1.30237,0.74248c0.55083,-0.06914 0.99008,-0.49324 1.07849,-1.04131l1.5,-9.40039c0.0672,-0.37541 -0.04063,-0.76095 -0.29285,-1.04702c-0.25221,-0.28607 -0.62121,-0.44136 -1.00208,-0.42173zM28.63867,18.02734c-0.5987,0.03087 -1.0912,0.4824 -1.17383,1.07617l-0.82227,5.1582l-1.49609,-3.45703c-0.19843,-0.45647 -0.64875,-0.75174 -1.14648,-0.75174c-0.49774,0 -0.94805,0.29527 -1.14648,0.75174l-1.49609,3.45703l-0.82227,-5.1582c-0.08739,-0.60266 -0.59631,-1.05467 -1.20508,-1.07031c-0.37429,-0.00954 -0.73314,0.14918 -0.97789,0.43251c-0.24475,0.28334 -0.34962,0.66145 -0.28578,1.03038l1.5,9.40039c0.08841,0.54806 0.52766,0.97217 1.07849,1.04131c0.55083,0.06914 1.08126,-0.23326 1.30237,-0.74248l2.05273,-4.74805l2.05273,4.74805c0.22111,0.50922 0.75155,0.81162 1.30237,0.74248c0.55083,-0.06914 0.99008,-0.49324 1.07849,-1.04131l1.5,-9.40039c0.0672,-0.37541 -0.04063,-0.76095 -0.29285,-1.04702c-0.25221,-0.28607 -0.62121,-0.44136 -1.00208,-0.42173zM42.63867,18.02734c-0.5987,0.03087 -1.0912,0.4824 -1.17383,1.07617l-0.82227,5.1582l-1.49609,-3.45703c-0.19843,-0.45647 -0.64875,-0.75174 -1.14648,-0.75174c-0.49774,0 -0.94805,0.29527 -1.14648,0.75174l-1.49609,3.45703l-0.82227,-5.1582c-0.08739,-0.60266 -0.59631,-1.05467 -1.20508,-1.07031c-0.37429,-0.00954 -0.73314,0.14918 -0.97789,0.43251c-0.24475,0.28334 -0.34962,0.66145 -0.28578,1.03038l1.5,9.40039c0.08841,0.54806 0.52766,0.97217 1.07849,1.04131c0.55083,0.06914 1.08126,-0.23326 1.30237,-0.74248l2.05273,-4.74805l2.05273,4.74805c0.22111,0.50922 0.75155,0.81162 1.30237,0.74248c0.55083,-0.06914 0.99008,-0.49324 1.07849,-1.04131l1.5,-9.40039c0.0672,-0.37541 -0.04063,-0.76095 -0.29285,-1.04702c-0.25221,-0.28607 -0.62121,-0.44136 -1.00208,-0.42173zM6.14063,33c2.45,4.87 6.84016,8.59992 12.16016,10.16992c-1.64,-2.55 -2.83125,-6.16992 -3.53125,-10.16992zM17.82031,33c1.24,6.43 3.65898,10.73023 5.95898,10.99023c0.07,0.01 0.1507,0.00977 0.2207,0.00977c0.07,0 0.1507,0.00023 0.2207,-0.00977c2.3,-0.26 4.71899,-4.56023 5.95898,-10.99023zM33.23047,33c-0.7,4 -1.89125,7.61992 -3.53125,10.16992c5.32,-1.57 9.71016,-5.29992 12.16016,-10.16992z"></path></g></g></svg>