<svg xmlns="http://www.w3.org/2000/svg" xmlns:xlink="http://www.w3.org/1999/xlink" viewBox="0,0,256,256" width="24px" height="24px"><g fill="#ffffff" fill-rule="nonzero" stroke="none" stroke-width="1" stroke-linecap="butt" stroke-linejoin="miter" stroke-miterlimit="10" stroke-dasharray="" stroke-dashoffset="0" font-family="none" font-weight="none" font-size="none" text-anchor="none" style="mix-blend-mode: normal"><g transform="scale(5.33333,5.33333)"><path d="M24,4c-3.50831,0 -6.4296,2.62143 -6.91992,6h-10.58008c-0.54095,-0.00765 -1.04412,0.27656 -1.31683,0.74381c-0.27271,0.46725 -0.27271,1.04514 0,1.51238c0.27271,0.46725 0.77588,0.75146 1.31683,0.74381h2.13672l2.51953,26.0293c0.274,2.833 2.62956,4.9707 5.47656,4.9707h14.73438c2.847,0 5.20156,-2.1377 5.47656,-4.9707l2.51953,-26.0293h2.13672c0.54095,0.00765 1.04412,-0.27656 1.31683,-0.74381c0.27271,-0.46725 0.27271,-1.04514 0,-1.51238c-0.27271,-0.46725 -0.77588,-0.75146 -1.31683,-0.74381h-10.58008c-0.49032,-3.37857 -3.41161,-6 -6.91992,-6zM24,7c1.87916,0 3.42077,1.26816 3.86133,3h-7.72266c0.44056,-1.73184 1.98217,-3 3.86133,-3zM19.5,18c0.828,0 1.5,0.671 1.5,1.5v15c0,0.829 -0.672,1.5 -1.5,1.5c-0.828,0 -1.5,-0.671 -1.5,-1.5v-15c0,-0.829 0.672,-1.5 1.5,-1.5zM28.5,18c0.828,0 1.5,0.671 1.5,1.5v15c0,0.829 -0.672,1.5 -1.5,1.5c-0.828,0 -1.5,-0.671 -1.5,-1.5v-15c0,-0.829 0.672,-1.5 1.5,-1.5z"></path></g></g></svg>