<svg version="1.1" xmlns="http://www.w3.org/2000/svg" xmlns:xlink="http://www.w3.org/1999/xlink" width="48px" height="48px" viewBox="0,0,256,256"><g fill="#ffffff" fill-rule="nonzero" stroke="none" stroke-width="1" stroke-linecap="butt" stroke-linejoin="miter" stroke-miterlimit="10" stroke-dasharray="" stroke-dashoffset="0" font-family="none" font-weight="none" font-size="none" text-anchor="none" style="mix-blend-mode: normal"><g transform="scale(5.33333,5.33333)"><path d="M24,6c-9.91776,0 -18,8.08224 -18,18c0,9.91776 8.08224,18 18,18c9.91776,0 18,-8.08224 18,-18c0,-0.78897 -0.06565,-1.53776 -0.1543,-2.24805c-0.07573,-0.71995 -0.53457,-1.34279 -1.19971,-1.62854c-0.66514,-0.28574 -1.43277,-0.18979 -2.00711,0.25089c-0.57434,0.44068 -0.86574,1.1573 -0.76193,1.87374c0.07535,0.60371 0.12305,1.18292 0.12305,1.75195c0,7.75624 -6.24376,14 -14,14c-7.75624,0 -14,-6.24376 -14,-14c0,-7.75624 6.24376,-14 14,-14c3.27371,0 6.26409,1.12404 8.64063,3h-1.64062c-0.72127,-0.0102 -1.39216,0.36875 -1.75578,0.99175c-0.36361,0.623 -0.36361,1.39351 0,2.01651c0.36361,0.623 1.0345,1.00195 1.75578,0.99175h6c1.10452,-0.00011 1.99989,-0.89548 2,-2v-6c0.00739,-0.54026 -0.2041,-1.06052 -0.58634,-1.44239c-0.38224,-0.38187 -0.90271,-0.59286 -1.44296,-0.58495c-1.1038,0.01618 -1.9858,0.92353 -1.9707,2.02734v0.76953c-3.04391,-2.35773 -6.86158,-3.76953 -11,-3.76953z"></path></g></g></svg>