<svg version="1.1" xmlns="http://www.w3.org/2000/svg" xmlns:xlink="http://www.w3.org/1999/xlink" width="48px" height="48px" viewBox="0,0,256,256"><g fill="#ffffff" fill-rule="nonzero" stroke="none" stroke-width="1" stroke-linecap="butt" stroke-linejoin="miter" stroke-miterlimit="10" stroke-dasharray="" stroke-dashoffset="0" font-family="none" font-weight="none" font-size="none" text-anchor="none" style="mix-blend-mode: normal"><g transform="scale(5.33333,5.33333)"><path d="M5.48438,3.98438c-0.61064,0.00015 -1.16026,0.37042 -1.38978,0.93629c-0.22952,0.56587 -0.09314,1.21439 0.34486,1.63988l9.85742,9.85742c0.88995,3.58018 3.70498,6.39521 7.28516,7.28516l4.29688,4.29688h-13.90039c-2.194,0 -3.97852,1.78452 -3.97852,3.97852v1.52148c0,4.456 3.30817,7.94803 9.07617,9.58203c2.149,0.608 4.53178,0.91797 6.92578,0.91797c5.18002,0 10.40316,-1.45391 13.41797,-4.45898l4.01953,4.01953c0.37623,0.39185 0.9349,0.54969 1.46055,0.41265c0.52565,-0.13704 0.93616,-0.54754 1.07319,-1.07319c0.13704,-0.52565 -0.0208,-1.08432 -0.41265,-1.46055l-37,-37c-0.28248,-0.2909 -0.67069,-0.45506 -1.07617,-0.45508zM24,4c-3.69,0 -6.90863,2.01409 -8.64062,4.99609l13.64453,13.64453c2.982,-1.732 4.99609,-4.95062 4.99609,-8.64062c0,-5.514 -4.486,-10 -10,-10zM34.36328,28l5.62891,5.63086c0.001,-0.043 0.00781,-0.08491 0.00781,-0.12891l0.00195,-1.52344c0,-2.194 -1.78647,-3.97852 -3.98047,-3.97852z"></path></g></g></svg>