<svg version="1.1" xmlns="http://www.w3.org/2000/svg" xmlns:xlink="http://www.w3.org/1999/xlink" width="48px" height="48px" viewBox="0,0,256,256"><g fill="#ffffff" fill-rule="nonzero" stroke="none" stroke-width="1" stroke-linecap="butt" stroke-linejoin="miter" stroke-miterlimit="10" stroke-dasharray="" stroke-dashoffset="0" font-family="none" font-weight="none" font-size="none" text-anchor="none" style="mix-blend-mode: normal"><g transform="scale(5.33333,5.33333)"><path d="M15,7c-6.05756,0 -11,4.94244 -11,11c0,4.09615 3.08764,7.9529 6.85156,11.9082c3.76392,3.9553 8.39682,7.96127 12.08789,11.65234c0.58579,0.58555 1.5353,0.58555 2.12109,0c3.69107,-3.69107 8.32397,-7.69704 12.08789,-11.65234c3.76392,-3.9553 6.85156,-7.81205 6.85156,-11.9082c0,-6.05756 -4.94244,-11 -11,-11c-3.47644,0 -6.50318,1.86649 -9,5.03711c-2.49682,-3.17062 -5.52356,-5.03711 -9,-5.03711z"></path></g></g></svg>