<svg version="1.1" xmlns="http://www.w3.org/2000/svg" xmlns:xlink="http://www.w3.org/1999/xlink" width="48px" height="48px" viewBox="0,0,256,256"><g fill="#ffffff" fill-rule="nonzero" stroke="none" stroke-width="1" stroke-linecap="butt" stroke-linejoin="miter" stroke-miterlimit="10" stroke-dasharray="" stroke-dashoffset="0" font-family="none" font-weight="none" font-size="none" text-anchor="none" style="mix-blend-mode: normal"><g transform="scale(5.33333,5.33333)"><path d="M12.5,4c-2.481,0 -4.5,2.019 -4.5,4.5v31c0,2.481 2.019,4.5 4.5,4.5h13.13281c-2.246,-2.336 -3.63281,-5.504 -3.63281,-9c0,-7.18 5.82,-13 13,-13c1.772,0 3.46,0.357 5,1v-3h-11.5c-2.481,0 -4.5,-2.019 -4.5,-4.5v-11.5zM27,4.87891v10.62109c0,0.827 0.673,1.5 1.5,1.5h10.62109zM35,24c-6.075,0 -11,4.925 -11,11c0,6.075 4.925,11 11,11c6.075,0 11,-4.925 11,-11c0,-6.075 -4.925,-11 -11,-11zM35,30c5.182,0 7.75628,4.31209 7.86328,4.49609c0.181,0.312 0.181,0.69581 0,1.00781c-0.107,0.184 -2.68128,4.49609 -7.86328,4.49609c-5.182,0 -7.75628,-4.31209 -7.86328,-4.49609c-0.181,-0.312 -0.181,-0.69581 0,-1.00781c0.107,-0.184 2.68128,-4.49609 7.86328,-4.49609zM35,32c-1.657,0 -3,1.343 -3,3c0,1.657 1.343,3 3,3c1.657,0 3,-1.343 3,-3c0,-1.657 -1.343,-3 -3,-3z"></path></g></g></svg>