<svg version="1.1" xmlns="http://www.w3.org/2000/svg" xmlns:xlink="http://www.w3.org/1999/xlink" width="48px" height="48px" viewBox="0,0,256,256"><g fill="#ffffff" fill-rule="nonzero" stroke="none" stroke-width="1" stroke-linecap="butt" stroke-linejoin="miter" stroke-miterlimit="10" stroke-dasharray="" stroke-dashoffset="0" font-family="none" font-weight="none" font-size="none" text-anchor="none" style="mix-blend-mode: normal"><g transform="scale(5.33333,5.33333)"><path d="M13.49805,4c-3.032,0 -5.49805,2.467 -5.49805,5.5v29c0,3.033 2.467,5.5 5.5,5.5h21c3.033,0 5.5,-2.467 5.5,-5.5v-29c0,-3.033 -2.467,-5.5 -5.5,-5.5h-9v17.87891l4.43945,-4.43945c0.586,-0.586 1.53509,-0.586 2.12109,0c0.586,0.585 0.586,1.53609 0,2.12109l-7,7c-0.292,0.293 -0.67655,0.43945 -1.06055,0.43945c-0.384,0 -0.76755,-0.14645 -1.06055,-0.43945l-7,-7c-0.586,-0.585 -0.586,-1.53609 0,-2.12109c0.586,-0.586 1.53509,-0.586 2.12109,0l4.4375,4.43945v-17.87891zM38.97656,15.95898c0.009,0.013 0.0203,0.02802 0.0293,0.04102h-0.02539c-0.001,-0.014 -0.00291,-0.02702 -0.00391,-0.04102zM13.5,34h21c1.378,0 2.5,1.122 2.5,2.5v2c0,1.378 -1.122,2.5 -2.5,2.5h-21c-1.378,0 -2.5,-1.122 -2.5,-2.5v-2c0,-1.378 1.122,-2.5 2.5,-2.5zM14.5,36c-0.82843,0 -1.5,0.67157 -1.5,1.5c0,0.82843 0.67157,1.5 1.5,1.5c0.82843,0 1.5,-0.67157 1.5,-1.5c0,-0.82843 -0.67157,-1.5 -1.5,-1.5z"></path></g></g></svg>