<svg version="1.1" xmlns="http://www.w3.org/2000/svg" xmlns:xlink="http://www.w3.org/1999/xlink" width="50px" height="50px" viewBox="0,0,256,256"><g fill="#ffffff" fill-rule="nonzero" stroke="none" stroke-width="1" stroke-linecap="butt" stroke-linejoin="miter" stroke-miterlimit="10" stroke-dasharray="" stroke-dashoffset="0" font-family="none" font-weight="none" font-size="none" text-anchor="none" style="mix-blend-mode: normal"><g transform="scale(5.12,5.12)"><path d="M18.46484,1.00195c-0.08863,0.00562 -0.17767,0.02273 -0.26367,0.05273c-0.25,0.087 -6.14948,2.20794 -7.89648,9.46094l-1.4043,5.83398c-0.062,0.257 -0.01891,0.53081 0.12109,0.75781c0.139,0.225 0.36114,0.38722 0.61914,0.44922l-0.46875,1.94336c-0.533,-0.125 -1.07803,0.20128 -1.20703,0.73828l-0.9375,3.88867c-0.062,0.258 -0.01886,0.52986 0.11914,0.75586c0.139,0.226 0.36114,0.38817 0.61914,0.45117l6.80664,1.63867c0.077,0.018 0.15637,0.02734 0.23438,0.02734c0.182,0 0.36148,-0.04948 0.52148,-0.14648c0.226,-0.138 0.38917,-0.36114 0.45117,-0.61914l0.93555,-3.88867c0.129,-0.537 -0.20228,-1.07508 -0.73828,-1.20508l0.46875,-1.94531l1.94336,0.46875l1.63867,-6.80664l-0.9707,-0.23242c-1.073,-0.259 -1.73652,-1.34111 -1.47852,-2.41211l1.92383,-7.97852c0.086,-0.356 -0.02978,-0.72961 -0.30078,-0.97461c-0.204,-0.1845 -0.47045,-0.27469 -0.73633,-0.25781zM21.96875,13.33594l-1.63867,6.80664l19.49219,4.80078l0.01367,0.00391c0.133,0.031 0.26653,0.04973 0.39453,0.05273c0.022,0.001 0.04441,0.00195 0.06641,0.00195c0.917,0 1.72931,-0.63525 1.94531,-1.53125l0.70312,-2.91992c0.04,-0.165 0.05769,-0.334 0.05469,-0.5c-0.016,-0.911 -0.64534,-1.69716 -1.52734,-1.91016zM14,29c-0.552,0 -1,0.447 -1,1v8c0,0.553 0.448,1 1,1h21c5.514,0 10,-3.486 10,-9c0,-0.553 -0.448,-1 -1,-1zM6,31c-0.552,0 -1,0.447 -1,1c0,3.309 2.691,5 6,5v-6zM22.85742,41c-0.447,1.721 -1.99942,3 -3.85742,3c-1.654,0 -3,1.346 -3,3v1c0,0.553 0.448,1 1,1h4c0.26,0 0.51417,-0.10611 0.70117,-0.28711c0.072,-0.07 1.80783,-1.71289 5.29883,-1.71289c3.491,0 5.22597,1.64303 5.29297,1.70703c0.187,0.188 0.44203,0.29297 0.70703,0.29297h4c0.552,0 1,-0.447 1,-1v-1c0,-1.654 -1.346,-3 -3,-3c-1.858,0 -3.41042,-1.279 -3.85742,-3z"></path></g></g></svg>