<svg version="1.1" xmlns="http://www.w3.org/2000/svg" xmlns:xlink="http://www.w3.org/1999/xlink" width="48px" height="48px" viewBox="0,0,256,256"><g fill="#ffffff" fill-rule="nonzero" stroke="none" stroke-width="1" stroke-linecap="butt" stroke-linejoin="miter" stroke-miterlimit="10" stroke-dasharray="" stroke-dashoffset="0" font-family="none" font-weight="none" font-size="none" text-anchor="none" style="mix-blend-mode: normal"><g transform="scale(5.33333,5.33333)"><path d="M38,19c0.071,0 1.5,0 1.5,0c0.828,0 1.5,-0.672 1.5,-1.5v-6c0,-1.933 -1.567,-3.5 -3.5,-3.5h-7.5c0,0 0,-0.667 0,-1c0,-2.761 -2.239,-5 -5,-5c-2.761,0 -5,2.239 -5,5c0,0.343 0,1 0,1h-7.5c-1.933,0 -3.5,1.567 -3.5,3.5v7.5c0,0 -0.657,0 -1,0c-2.761,0 -5,2.239 -5,5c0,2.761 2.239,5 5,5c0.343,0 1,0 1,0v7.5c0,1.933 1.567,3.5 3.5,3.5h7.5c0,0 0,0.657 0,1c0,2.761 2.239,5 5,5c2.761,0 5,-2.239 5,-5c0,-0.343 0,-1 0,-1h7.5c1.933,0 3.5,-1.567 3.5,-3.5v-6c0,-0.825 -0.677,-1.5 -1.502,-1.5c-1.624,0 -1.009,0 -1.496,0h-0.001c-2.761,0 -5,-2.239 -5,-5c0,-2.761 2.238,-5 4.999,-5z"></path></g></g></svg>