<?xml version='1.0' encoding='UTF-8'?>
<svg x="0px" y="0px" viewBox="0 0 32 32" version="1.1" xmlns="http://www.w3.org/2000/svg" xmlns:xlink="http://www.w3.org/1999/xlink" xml:space="preserve" id="Layer_1" style="enable-background:new 0 0 32 32">
  <style type="text/css">
	.Blue{fill:#1177D7;}
	.Yellow{fill:#FFB115;}
	.Black{fill:#727272;}
	.Green{fill:#039C23;}
	.Red{fill:#D11C1C;}
	.st0{opacity:0.75;}
	.st1{opacity:0.5;}
</style>
  <g id="Question">
    <path d="M16,2C8.3,2,2,8.3,2,16s6.3,14,14,14s14-6.3,14-14S23.7,2,16,2z M16,24c-1.1,0-2-0.9-2-2c0-1.1,0.9-2,2-2   s2,0.9,2,2C18,23.1,17.1,24,16,24z M20.7,13.3c-0.2,0.4-0.4,0.7-0.6,1c-0.3,0.3-0.5,0.5-0.8,0.7c-0.3,0.2-0.6,0.4-0.9,0.6   c-0.3,0.2-0.5,0.4-0.7,0.7c-0.2,0.3-0.3,0.6-0.4,1V18h-2.7v-0.9c0-0.6,0.2-1,0.3-1.4c0.2-0.4,0.4-0.7,0.6-1   c0.2-0.3,0.5-0.5,0.8-0.7c0.3-0.2,0.5-0.4,0.8-0.6c0.2-0.2,0.4-0.4,0.6-0.6c0.1-0.2,0.2-0.5,0.2-0.9c0-0.6-0.2-1-0.5-1.3   c-0.3-0.3-0.7-0.4-1.3-0.4c-0.4,0-0.7,0.1-0.9,0.2c-0.3,0.1-0.5,0.3-0.7,0.5c-0.2,0.2-0.3,0.5-0.4,0.8C14,12.1,14,12.7,14,13h-3   c0-0.7,0.1-1.6,0.4-2.1c0.2-0.6,0.6-1.1,1-1.5c0.4-0.4,0.9-0.8,1.5-1c0.6-0.2,1.3-0.4,2-0.4c1,0,1.8,0.1,2.4,0.4   c0.6,0.3,1.2,0.6,1.6,0.9c0.4,0.4,0.7,0.8,0.8,1.2s0.3,0.8,0.3,1.2C21,12.4,20.9,12.9,20.7,13.3z" class="Green" />
  </g>
</svg>