<svg version="1.1" xmlns="http://www.w3.org/2000/svg" xmlns:xlink="http://www.w3.org/1999/xlink" width="48px" height="48px" viewBox="0,0,256,256"><g fill="#ffffff" fill-rule="nonzero" stroke="none" stroke-width="1" stroke-linecap="butt" stroke-linejoin="miter" stroke-miterlimit="10" stroke-dasharray="" stroke-dashoffset="0" font-family="none" font-weight="none" font-size="none" text-anchor="none" style="mix-blend-mode: normal"><g transform="scale(5.33333,5.33333)"><path d="M23.5,6c-5.68512,0 -10.76871,2.65753 -14.0625,6.78516c-0.47369,0.55555 -0.60707,1.32505 -0.34798,2.00761c0.25909,0.68256 0.86949,1.16974 1.59251,1.27102c0.72302,0.10129 1.44379,-0.1994 1.88047,-0.78449c2.56821,-3.21837 6.49462,-5.2793 10.9375,-5.2793c7.08115,0 12.88613,5.20953 13.8457,12.01758l-0.93164,-0.93164c-0.37701,-0.38755 -0.89487,-0.60596 -1.43555,-0.60547c-0.81349,0.00101 -1.54533,0.49459 -1.85108,1.24844c-0.30574,0.75385 -0.12447,1.61777 0.4585,2.18515l4.5,4.5c0.78106,0.78074 2.04706,0.78074 2.82812,0l4.5,-4.5c0.52248,-0.50163 0.73295,-1.24653 0.55024,-1.94742c-0.18271,-0.70088 -0.73006,-1.24823 -1.43094,-1.43094c-0.70088,-0.18271 -1.44578,0.02776 -1.94742,0.55024l-1.17383,1.17383c-0.88024,-9.10501 -8.58188,-16.25977 -17.91211,-16.25977zM8.4707,19c-0.52023,0.00778 -1.01695,0.21796 -1.38477,0.58594l-4.5,4.5c-0.52247,0.50163 -0.73294,1.24653 -0.55022,1.94741c0.18271,0.70088 0.73006,1.24822 1.43094,1.43094c0.70088,0.18271 1.44578,-0.02775 1.94741,-0.55022l1.17773,-1.17773c0.90636,9.07832 8.59712,16.20313 17.9082,16.20313c5.66853,0 10.74111,-2.64144 14.03516,-6.74805c0.45702,-0.55661 0.57953,-1.31594 0.32074,-1.98803c-0.25879,-0.67209 -0.85892,-1.15317 -1.57122,-1.25953c-0.7123,-0.10636 -1.42678,0.17843 -1.87062,0.74561c-2.56795,3.2014 -6.48459,5.25 -10.91406,5.25c-7.05595,0 -12.8434,-5.1729 -13.83398,-11.94531l0.91992,0.91992c0.50163,0.52248 1.24653,0.73295 1.94742,0.55024c0.70088,-0.18271 1.24823,-0.73006 1.43094,-1.43094c0.18271,-0.70088 -0.02776,-1.44578 -0.55024,-1.94742l-4.5,-4.5c-0.38217,-0.38233 -0.90283,-0.5937 -1.44336,-0.58594z"></path></g></g></svg>