<svg version="1.1" xmlns="http://www.w3.org/2000/svg" xmlns:xlink="http://www.w3.org/1999/xlink" width="48px" height="48px" viewBox="0,0,256,256"><g fill="#ffffff" fill-rule="nonzero" stroke="none" stroke-width="1" stroke-linecap="butt" stroke-linejoin="miter" stroke-miterlimit="10" stroke-dasharray="" stroke-dashoffset="0" font-family="none" font-weight="none" font-size="none" text-anchor="none" style="mix-blend-mode: normal"><g transform="scale(5.33333,5.33333)"><path d="M19.47656,4.97852c-0.82766,0.01293 -1.48844,0.69381 -1.47656,1.52148v1.5c0,1.26388 0.39999,2.43943 1.07617,3.41016c-2.79687,0.95888 -4.84701,3.52245 -5.05078,6.58984h-0.52539c-2.5035,0 -4.5,-1.9965 -4.5,-4.5v-3c0.00582,-0.40562 -0.15288,-0.7963 -0.43991,-1.08296c-0.28703,-0.28666 -0.67792,-0.44486 -1.08353,-0.43852c-0.82766,0.01293 -1.48844,0.69381 -1.47656,1.52148v3c0,4.1245 3.3755,7.5 7.5,7.5h0.5v3.5h-8.5c-0.54095,-0.00765 -1.04412,0.27656 -1.31683,0.74381c-0.27271,0.46725 -0.27271,1.04514 0,1.51238c0.27271,0.46725 0.77588,0.75146 1.31683,0.74381h8.5v3.20898c0,0.0982 0.011,0.19343 0.01367,0.29102h-0.51367c-4.1245,0 -7.5,3.3755 -7.5,7.5v3c-0.00765,0.54095 0.27656,1.04412 0.74381,1.31683c0.46725,0.27271 1.04514,0.27271 1.51238,0c0.46725,-0.27271 0.75146,-0.77588 0.74381,-1.31683v-3c0,-2.5035 1.9965,-4.5 4.5,-4.5h1.03516c1.26592,3.85066 4.67829,6.71143 8.80273,6.97852c0.225,0.014 0.44888,0.02148 0.67188,0.02148c2.551,0 4.95413,-0.94613 6.82813,-2.70312c1.26174,-1.18265 2.18443,-2.6716 2.69727,-4.29687h0.96484c2.5035,0 4.5,1.9965 4.5,4.5v3c-0.00765,0.54095 0.27656,1.04412 0.74381,1.31683c0.46725,0.27271 1.04514,0.27271 1.51238,0c0.46725,-0.27271 0.75146,-0.77588 0.74381,-1.31683v-3c0,-4.1245 -3.3755,-7.5 -7.5,-7.5h-0.5v-3.5h8.5c0.54095,0.00765 1.04412,-0.27656 1.31683,-0.74381c0.27271,-0.46725 0.27271,-1.04514 0,-1.51238c-0.27271,-0.46725 -0.77588,-0.75146 -1.31683,-0.74381h-8.5v-3.5h0.5c4.1245,0 7.5,-3.3755 7.5,-7.5v-3c0.00582,-0.40562 -0.15288,-0.7963 -0.43991,-1.08296c-0.28703,-0.28666 -0.67792,-0.44486 -1.08353,-0.43852c-0.82766,0.01293 -1.48844,0.69381 -1.47656,1.52148v3c0,2.5035 -1.9965,4.5 -4.5,4.5h-0.52539c-0.20377,-3.0674 -2.25391,-5.63097 -5.05078,-6.58984c0.67618,-0.97073 1.07617,-2.14628 1.07617,-3.41016v-1.5c0.00765,-0.54095 -0.27656,-1.04412 -0.74381,-1.31683c-0.46725,-0.27271 -1.04514,-0.27271 -1.51238,0c-0.46725,0.27271 -0.75146,0.77588 -0.74381,1.31683v1.5c0,1.67413 -1.32587,3 -3,3c-1.67413,0 -3,-1.32587 -3,-3v-1.5c0.00582,-0.40562 -0.15288,-0.7963 -0.43991,-1.08296c-0.28703,-0.28666 -0.67792,-0.44486 -1.08353,-0.43852z"></path></g></g></svg>