<svg version="1.1" xmlns="http://www.w3.org/2000/svg" xmlns:xlink="http://www.w3.org/1999/xlink" width="48px" height="48px" viewBox="0,0,256,256"><g fill="#ffffff" fill-rule="nonzero" stroke="none" stroke-width="1" stroke-linecap="butt" stroke-linejoin="miter" stroke-miterlimit="10" stroke-dasharray="" stroke-dashoffset="0" font-family="none" font-weight="none" font-size="none" text-anchor="none" style="mix-blend-mode: normal"><g transform="scale(5.33333,5.33333)"><path d="M24,4.91797c-6.83124,0 -12.94755,3.11423 -17,7.99805v-5.41602c0.00582,-0.40562 -0.15288,-0.7963 -0.43991,-1.08296c-0.28703,-0.28666 -0.67792,-0.44486 -1.08353,-0.43852c-0.82766,0.01293 -1.48844,0.69381 -1.47656,1.52148v9c0.00008,0.82839 0.67161,1.49992 1.5,1.5h0.83984h8.16016c0.54095,0.00765 1.04412,-0.27656 1.31683,-0.74381c0.27271,-0.46725 0.27271,-1.04514 0,-1.51238c-0.27271,-0.46725 -0.77588,-0.75146 -1.31683,-0.74381h-5.33789c3.49676,-4.31995 8.83604,-7.08203 14.83789,-7.08203c6.57878,0 12.36127,3.31741 15.79492,8.36914c0.46545,0.6855 1.39848,0.86389 2.08398,0.39844c0.6855,-0.46545 0.86389,-1.39848 0.39844,-2.08398c-3.97235,-5.84427 -10.68812,-9.68359 -18.27734,-9.68359zM24,14.25c-3.825,0 -6.9375,3.1115 -6.9375,6.9375c0,3.826 3.1125,6.9375 6.9375,6.9375c3.825,0 6.9375,-3.1115 6.9375,-6.9375c0,-3.826 -3.1125,-6.9375 -6.9375,-6.9375zM16.41602,30c-1.918,0 -3.47852,1.46277 -3.47852,3.25977v3.08203c0,3.796 4.7555,6.66016 11.0625,6.66016c6.307,0 11.0635,-2.86416 11.0625,-6.66016v-3.08203c0,-1.797 -1.56247,-3.25977 -3.48047,-3.25977z"></path></g></g></svg>