<svg version="1.1" xmlns="http://www.w3.org/2000/svg" xmlns:xlink="http://www.w3.org/1999/xlink" width="48px" height="48px" viewBox="0,0,256,256"><g fill="#ffffff" fill-rule="nonzero" stroke="none" stroke-width="1" stroke-linecap="butt" stroke-linejoin="miter" stroke-miterlimit="10" stroke-dasharray="" stroke-dashoffset="0" font-family="none" font-weight="none" font-size="none" text-anchor="none" style="mix-blend-mode: normal"><g transform="scale(5.33333,5.33333)"><path d="M42.4707,3.98633c-0.38956,0.01135 -0.75941,0.17386 -1.03125,0.45312l-4.98828,4.98633c-4.18057,-3.10308 -10.05854,-2.94146 -13.8457,0.8457l-3.10547,3.10742l-0.93945,-0.93945c-0.37623,-0.39185 -0.9349,-0.54969 -1.46055,-0.41265c-0.52565,0.13704 -0.93616,0.54754 -1.07319,1.07319c-0.13704,0.52565 0.0208,1.08432 0.41265,1.46055l1.82617,1.82617c0.09556,0.13336 0.21234,0.25015 0.3457,0.3457l12.6543,12.6543c0.09556,0.13336 0.21234,0.25015 0.3457,0.3457l1.82813,1.82813c0.37623,0.39185 0.9349,0.54969 1.46055,0.41265c0.52565,-0.13704 0.93616,-0.54754 1.07319,-1.07319c0.13704,-0.52565 -0.0208,-1.08432 -0.41265,-1.46055l-0.93945,-0.93945l3.10742,-3.10547c3.78717,-3.78717 3.94878,-9.66514 0.8457,-13.8457l4.98633,-4.98828c0.4429,-0.43135 0.57582,-1.09023 0.33479,-1.65955c-0.24103,-0.56932 -0.80665,-0.93247 -1.42463,-0.91467zM13.48438,15.98438c-0.61065,0.00015 -1.16026,0.37042 -1.38978,0.93629c-0.22952,0.56587 -0.09314,1.21439 0.34486,1.63988l0.93945,0.93945l-3.10742,3.10547c-3.78716,3.78717 -3.94878,9.66514 -0.8457,13.8457l-4.98633,4.98828c-0.39185,0.37623 -0.54969,0.9349 -0.41265,1.46055c0.13704,0.52565 0.54754,0.93616 1.07319,1.07319c0.52565,0.13704 1.08432,-0.02081 1.46055,-0.41265l4.98828,-4.98633c4.18056,3.10308 10.05854,2.94146 13.8457,-0.8457l3.10547,-3.10742l0.93945,0.93945c0.37623,0.39185 0.9349,0.54969 1.46055,0.41265c0.52565,-0.13704 0.93616,-0.54754 1.07319,-1.07319c0.13704,-0.52565 -0.0208,-1.08432 -0.41265,-1.46055l-1.82617,-1.82617c-0.09556,-0.13336 -0.21234,-0.25015 -0.3457,-0.3457l-12.6543,-12.6543c-0.09556,-0.13336 -0.21234,-0.25015 -0.3457,-0.3457l-1.82812,-1.82812c-0.28248,-0.2909 -0.67069,-0.45506 -1.07617,-0.45508z"></path></g></g></svg>