<svg version="1.1" xmlns="http://www.w3.org/2000/svg" xmlns:xlink="http://www.w3.org/1999/xlink" width="48px" height="48px" viewBox="0,0,256,256"><g fill="#ffffff" fill-rule="nonzero" stroke="none" stroke-width="1" stroke-linecap="butt" stroke-linejoin="miter" stroke-miterlimit="10" stroke-dasharray="" stroke-dashoffset="0" font-family="none" font-weight="none" font-size="none" text-anchor="none" style="mix-blend-mode: normal"><g transform="scale(5.33333,5.33333)"><path d="M24,4c-5.514,0 -10,4.486 -10,10c0,5.514 4.486,10 10,10c5.514,0 10,-4.486 10,-10c0,-5.514 -4.486,-10 -10,-10zM41.51367,24c-1.14875,0.00025 -2.29642,0.43705 -3.16992,1.31055l-12.01758,12.01563c-0.311,0.31 -0.53625,0.69714 -0.65625,1.11914l-1.61133,5.64063c-0.149,0.523 -0.00514,1.08766 0.38086,1.47266c0.285,0.285 0.6695,0.43945 1.0625,0.43945c0.138,0 0.27416,-0.01959 0.41016,-0.05859l5.64453,-1.61133c0.424,-0.121 0.81123,-0.34925 1.11523,-0.65625l12.01563,-12.01562c0.846,-0.848 1.3125,-1.97583 1.3125,-3.17383c0,-1.198 -0.46745,-2.32487 -1.31445,-3.17187c-0.8745,-0.8745 -2.02313,-1.3108 -3.17187,-1.31055zM12.5,28c-2.481,0 -4.5,2.019 -4.5,4.5v0.76367c0,2.354 0.9795,4.61603 2.6875,6.20703c2.004,1.865 5.55728,4.04708 11.36328,4.45508c0.022,-0.13 0.04799,-0.25967 0.08398,-0.38867l1.60938,-5.64258c0.213,-0.748 0.61792,-1.43538 1.16992,-1.98437l7.91211,-7.91016z"></path></g></g></svg>