<svg version="1.1" xmlns="http://www.w3.org/2000/svg" xmlns:xlink="http://www.w3.org/1999/xlink" width="48px" height="48px" viewBox="0,0,256,256"><g fill="#ffffff" fill-rule="nonzero" stroke="none" stroke-width="1" stroke-linecap="butt" stroke-linejoin="miter" stroke-miterlimit="10" stroke-dasharray="" stroke-dashoffset="0" font-family="none" font-weight="none" font-size="none" text-anchor="none" style="mix-blend-mode: normal"><g transform="scale(5.33333,5.33333)"><path d="M38.18555,5.31055c-0.27528,0.02448 -0.54966,0.08113 -0.81641,0.17188l-17.36914,5.92188v21.19141l17.37109,5.92188c1.066,0.363 2.24902,0.1882 3.16602,-0.4668c0.915,-0.655 1.46289,-1.7187 1.46289,-2.8457v-9.00195c1.46454,-0.59406 2.5,-2.02552 2.5,-3.70312c0,-1.67761 -1.03546,-3.10907 -2.5,-3.70312v-10.00195c0,-1.127 -0.54689,-2.1907 -1.46289,-2.8457c-0.68775,-0.492 -1.52572,-0.71212 -2.35156,-0.63867zM17,12.11133l-7.92187,0.60938c-2.849,0.219 -5.07812,2.62642 -5.07812,5.48242v7.59375c0,2.78 2.11452,5.13594 4.85352,5.46094l0.94727,8.5293c0.203,1.831 1.74684,3.21289 3.58984,3.21289c1.991,0 3.60938,-1.62033 3.60938,-3.61133z"></path></g></g></svg>