<svg version="1.1" xmlns="http://www.w3.org/2000/svg" xmlns:xlink="http://www.w3.org/1999/xlink" width="48px" height="48px" viewBox="0,0,256,256"><g fill="#ffffff" fill-rule="nonzero" stroke="none" stroke-width="1" stroke-linecap="butt" stroke-linejoin="miter" stroke-miterlimit="10" stroke-dasharray="" stroke-dashoffset="0" font-family="none" font-weight="none" font-size="none" text-anchor="none" style="mix-blend-mode: normal"><g transform="scale(5.33333,5.33333)"><path d="M19.83203,5.05859c-3.75766,0 -6.83203,3.07333 -6.83203,6.83203c0,3.24216 2.72002,6.4957 5.27734,9.16797c2.55732,2.67227 5.10547,4.66992 5.10547,4.66992c0.36238,0.28421 0.872,0.28421 1.23438,0c0,0 2.54815,-1.99765 5.10547,-4.66992c2.55732,-2.67227 5.27734,-5.92581 5.27734,-9.16797c0,-3.7585 -3.07353,-6.83203 -6.83203,-6.83203c-1.89162,0 -3.21307,0.82571 -4.16797,1.61328c-0.9549,-0.78758 -2.27635,-1.61328 -4.16797,-1.61328zM19.83203,7.05859c1.60537,0 2.78778,0.87481 3.46094,1.54883c0.39053,0.39037 1.02353,0.39037 1.41406,0c0.67315,-0.67402 1.85556,-1.54883 3.46094,-1.54883c2.6735,0 4.83203,2.15853 4.83203,4.83203c0,1.96084 -2.27998,5.23268 -4.72266,7.78516c-2.13479,2.23075 -3.77126,3.50961 -4.27734,3.91602c-0.50608,-0.4064 -2.14255,-1.68526 -4.27734,-3.91602c-2.44268,-2.55248 -4.72266,-5.82431 -4.72266,-7.78516c0,-2.6733 2.1597,-4.83203 4.83203,-4.83203zM7.17773,10.18359c-0.58312,-0.00609 -1.16094,0.16609 -1.64844,0.49609c-0.64,0.44 -1.07898,1.14016 -1.20898,1.91016l-2.12109,13.66016c-0.36,2.33 0.41078,4.72039 2.05078,6.40039l6.75,6.87891c0.64,0.66 1,1.53117 1,2.45117v0.51953c0,0.828 0.672,1.5 1.5,1.5h8c0.828,0 1.5,-0.672 1.5,-1.5v-5.40039c0,-3.33 -1.48031,-6.43906 -4.07031,-8.53906l-6,-4.87109c-0.43,-0.35 -0.9793,-0.50922 -1.5293,-0.44922c-0.55,0.07 -1.05039,0.3393 -1.40039,0.7793c-0.66,0.82 -0.57984,2.00977 0.16016,2.75977l5.16992,5.14063c0.39,0.38 0.39,1.02016 0,1.41016c-0.38,0.39 -1.02016,0.39 -1.41016,0l-5.0625,-5.0332c-0.946,-0.94 -1.46777,-2.27284 -1.25977,-3.58984c0.234,-1.489 1.19734,-2.61472 2.40234,-3.13672l-0.00977,-8.54102c0,-1.34 -0.92047,-2.4893 -2.23047,-2.7793c-0.1925,-0.0425 -0.38766,-0.06438 -0.58203,-0.06641zM40.82227,10.18359c-0.19438,0.00203 -0.38953,0.02391 -0.58203,0.06641c-1.31,0.29 -2.23047,1.4393 -2.23047,2.7793l-0.00977,8.54102c1.204,0.522 2.16734,1.64772 2.40234,3.13672c0.208,1.317 -0.31377,2.64984 -1.25977,3.58984l-5.0625,5.0332c-0.39,0.39 -1.03016,0.39 -1.41016,0c-0.39,-0.39 -0.39,-1.03016 0,-1.41016l5.16992,-5.14062c0.74,-0.75 0.82016,-1.93977 0.16016,-2.75977c-0.35,-0.44 -0.85039,-0.7093 -1.40039,-0.7793c-0.55,-0.06 -1.0993,0.09922 -1.5293,0.44922l-6,4.87109c-2.59,2.1 -4.07031,5.20906 -4.07031,8.53906v5.40039c0,0.828 0.672,1.5 1.5,1.5h8c0.828,0 1.5,-0.672 1.5,-1.5v-0.51953c0,-0.92 0.36,-1.79117 1,-2.45117l6.75,-6.87891c1.64,-1.68 2.41078,-4.07039 2.05078,-6.40039l-2.12109,-13.66016c-0.13,-0.77 -0.56898,-1.47016 -1.20898,-1.91016c-0.4875,-0.33 -1.06531,-0.50219 -1.64844,-0.49609z"></path></g></g></svg>