<svg version="1.1" xmlns="http://www.w3.org/2000/svg" xmlns:xlink="http://www.w3.org/1999/xlink" width="48px" height="48px" viewBox="0,0,256,256"><g fill="#ffffff" fill-rule="nonzero" stroke="none" stroke-width="1" stroke-linecap="butt" stroke-linejoin="miter" stroke-miterlimit="10" stroke-dasharray="" stroke-dashoffset="0" font-family="none" font-weight="none" font-size="none" text-anchor="none" style="mix-blend-mode: normal"><g transform="scale(5.33333,5.33333)"><path d="M10.5,6c-3.032,0 -5.5,2.468 -5.5,5.5v24.5c0,3.309 2.691,6 6,6h11.60547c0.253,-0.958 0.62005,-2.241 1.12305,-4h-12.72852c-1.103,0 -2,-0.897 -2,-2v-20h30v6.52148c0.427,-0.181 0.8615,-0.33306 1.3125,-0.41406c0.394,-0.071 0.79036,-0.11447 1.19336,-0.10547c0.51,0 1.00914,0.06569 1.49414,0.17969v-10.68164c0,-3.032 -2.468,-5.5 -5.5,-5.5zM13.5,20c-0.54095,-0.00765 -1.04412,0.27656 -1.31683,0.74381c-0.27271,0.46725 -0.27271,1.04514 0,1.51238c0.27271,0.46725 0.77588,0.75146 1.31683,0.74381h2c0.54095,0.00765 1.04412,-0.27656 1.31683,-0.74381c0.27271,-0.46725 0.27271,-1.04514 0,-1.51238c-0.27271,-0.46725 -0.77588,-0.75146 -1.31683,-0.74381zM21.5,20c-0.828,0 -1.5,0.671 -1.5,1.5c0,0.829 0.672,1.5 1.5,1.5h13c0.828,0 1.5,-0.671 1.5,-1.5c0,-0.829 -0.672,-1.5 -1.5,-1.5zM41.49805,24c-0.274,0.001 -0.55108,0.02517 -0.83008,0.07617c-0.884,0.159 -1.72841,0.61998 -2.44141,1.33398l-11.79883,11.79883c-0.357,0.357 -0.61977,0.80216 -0.75977,1.28516l-1.57031,5.48047c-0.072,0.19 -0.10466,0.3908 -0.09766,0.5918c0.013,0.363 0.15559,0.722 0.43359,1c0.277,0.277 0.63409,0.41959 0.99609,0.43359c0.201,0.007 0.4047,-0.02466 0.5957,-0.09766l5.48047,-1.57031c0.483,-0.14 0.9252,-0.40176 1.2832,-0.75977l11.80078,-11.79883c0.714,-0.713 1.17498,-1.55741 1.33398,-2.44141c0.05,-0.279 0.07322,-0.55608 0.07422,-0.83008c0.003,-1.194 -0.45736,-2.32264 -1.31836,-3.18164c-0.859,-0.86 -1.98764,-1.32231 -3.18164,-1.32031zM13.5,26c-0.54095,-0.00765 -1.04412,0.27656 -1.31683,0.74381c-0.27271,0.46725 -0.27271,1.04514 0,1.51238c0.27271,0.46725 0.77588,0.75146 1.31683,0.74381h2c0.54095,0.00765 1.04412,-0.27656 1.31683,-0.74381c0.27271,-0.46725 0.27271,-1.04514 0,-1.51238c-0.27271,-0.46725 -0.77588,-0.75146 -1.31683,-0.74381zM21.5,26c-0.828,0 -1.5,0.671 -1.5,1.5c0,0.829 0.672,1.5 1.5,1.5h10.30859l2.9707,-2.97266c-0.091,-0.017 -0.1833,-0.02734 -0.2793,-0.02734zM13.5,32c-0.54095,-0.00765 -1.04412,0.27656 -1.31683,0.74381c-0.27271,0.46725 -0.27271,1.04514 0,1.51238c0.27271,0.46725 0.77588,0.75146 1.31683,0.74381h2c0.54095,0.00765 1.04412,-0.27656 1.31683,-0.74381c0.27271,-0.46725 0.27271,-1.04514 0,-1.51238c-0.27271,-0.46725 -0.77588,-0.75146 -1.31683,-0.74381zM21.5,32c-0.828,0 -1.5,0.671 -1.5,1.5c0,0.829 0.672,1.5 1.5,1.5h4.30859l3,-3z"></path></g></g></svg>