<svg version="1.1" xmlns="http://www.w3.org/2000/svg" xmlns:xlink="http://www.w3.org/1999/xlink" width="48px" height="48px" viewBox="0,0,256,256"><g fill="#ffffff" fill-rule="nonzero" stroke="none" stroke-width="1" stroke-linecap="butt" stroke-linejoin="miter" stroke-miterlimit="10" stroke-dasharray="" stroke-dashoffset="0" font-family="none" font-weight="none" font-size="none" text-anchor="none" style="mix-blend-mode: normal"><g transform="scale(5.33333,5.33333)"><path d="M23.9707,5.97266c-1.1038,0.01618 -1.9858,0.92353 -1.9707,2.02734v19.17188l-2.58594,-2.58594c-0.50163,-0.52248 -1.24653,-0.73295 -1.94742,-0.55024c-0.70088,0.18271 -1.24823,0.73006 -1.43094,1.43094c-0.18271,0.70088 0.02776,1.44578 0.55024,1.94742l6,6c0.78106,0.78074 2.04706,0.78074 2.82812,0l6,-6c0.52248,-0.50163 0.73295,-1.24653 0.55024,-1.94742c-0.18271,-0.70088 -0.73006,-1.24823 -1.43094,-1.43094c-0.70088,-0.18271 -1.44578,0.02776 -1.94742,0.55024l-2.58594,2.58594v-19.17187c0.00739,-0.54026 -0.2041,-1.06052 -0.58634,-1.44239c-0.38224,-0.38187 -0.90271,-0.59286 -1.44296,-0.58495zM7.9707,30.97266c-1.1038,0.01618 -1.9858,0.92353 -1.9707,2.02734v3c0,3.29003 2.70997,6 6,6h24c3.29003,0 6,-2.70997 6,-6v-3c0.0102,-0.72127 -0.36875,-1.39216 -0.99175,-1.75578c-0.623,-0.36361 -1.39351,-0.36361 -2.01651,0c-0.623,0.36361 -1.00195,1.0345 -0.99175,1.75578v3c0,1.12797 -0.87203,2 -2,2h-24c-1.12797,0 -2,-0.87203 -2,-2v-3c0.00739,-0.54026 -0.2041,-1.06052 -0.58634,-1.44239c-0.38224,-0.38187 -0.90271,-0.59286 -1.44296,-0.58495z"></path></g></g></svg>