<svg version="1.1" xmlns="http://www.w3.org/2000/svg" xmlns:xlink="http://www.w3.org/1999/xlink" width="48px" height="48px" viewBox="0,0,256,256"><g fill="#ffffff" fill-rule="nonzero" stroke="none" stroke-width="1" stroke-linecap="butt" stroke-linejoin="miter" stroke-miterlimit="10" stroke-dasharray="" stroke-dashoffset="0" font-family="none" font-weight="none" font-size="none" text-anchor="none" style="mix-blend-mode: normal"><g transform="scale(5.33333,5.33333)"><path d="M11.5,6c-3.033,0 -5.5,2.468 -5.5,5.5v1.5h36v-1.5c0,-3.032 -2.467,-5.5 -5.5,-5.5zM6,16v20.5c0,3.032 2.467,5.5 5.5,5.5h9.43359c0.388,-0.702 1.06641,-2.184 1.06641,-4v-1.5c0,-3.716 2.80322,-6.90683 6.44922,-7.42383c0.02,-0.006 0.04055,-0.01063 0.06055,-0.01562c0.098,-0.216 0.23289,-0.62625 0.33789,-1.28125c-0.551,-0.815 -0.84766,-1.7723 -0.84766,-2.7793c0,-2.757 2.243,-5 5,-5c2.757,0 5,2.243 5,5c0,1.007 -0.29566,1.96525 -0.84766,2.78125c0.106,0.655 0.23989,1.0633 0.33789,1.2793c0.02,0.005 0.03859,0.00962 0.05859,0.01563c1.752,0.248 3.30422,1.11928 4.44922,2.36328v-15.43945zM33,22c-1.22636,0.00048 -2.32895,0.74734 -2.78433,1.88601c-0.45538,1.13867 -0.17186,2.43987 0.71597,3.28587c-0.13327,1.47638 -0.55362,3.82813 -1.93164,3.82813c0,0.00936 0.00373,0.01616 0.00391,0.02539c-2.78995,0.25439 -5.00391,2.62244 -5.00391,5.47461v1.5c0,3.2953 -1.70312,5.60352 -1.70312,5.60352c-0.49511,0.66447 -0.35783,1.60449 0.30664,2.09961c0.66447,0.49511 1.60449,0.35783 2.09961,-0.30664c0,0 2.29688,-3.05379 2.29688,-7.39648v-1h12v6h-2v-2.5c0.00582,-0.40562 -0.15288,-0.7963 -0.43991,-1.08296c-0.28703,-0.28666 -0.67792,-0.44486 -1.08353,-0.43852c-0.82766,0.01293 -1.48843,0.69381 -1.47656,1.52148v2.5h-4.5c-0.54095,-0.00765 -1.04412,0.27656 -1.31683,0.74381c-0.27271,0.46725 -0.27271,1.04514 0,1.51238c0.27271,0.46725 0.77588,0.75146 1.31683,0.74381h5.75391c0.16103,0.02645 0.3253,0.02645 0.48633,0h4.75977c0.82839,-0.00008 1.49992,-0.67161 1.5,-1.5v-8c0,-2.85217 -2.21396,-5.22022 -5.00391,-5.47461c0.00017,-0.00924 0.00391,-0.01603 0.00391,-0.02539c-1.37868,0 -1.80054,-2.35385 -1.93359,-3.83008c0.88614,-0.84597 1.16885,-2.14576 0.71415,-3.28337c-0.4547,-1.13761 -1.55544,-1.88444 -2.78055,-1.88655z"></path></g></g></svg>