<svg version="1.1" xmlns="http://www.w3.org/2000/svg" xmlns:xlink="http://www.w3.org/1999/xlink" width="48px" height="48px" viewBox="0,0,256,256"><g fill="#ffffff" fill-rule="nonzero" stroke="none" stroke-width="1" stroke-linecap="butt" stroke-linejoin="miter" stroke-miterlimit="10" stroke-dasharray="" stroke-dashoffset="0" font-family="none" font-weight="none" font-size="none" text-anchor="none" style="mix-blend-mode: normal"><g transform="scale(5.33333,5.33333)"><path d="M43.926,19.033c-0.176,-0.537 -0.639,-0.93 -1.198,-1.016l-12.233,-1.882l-5.153,-10.306c-0.255,-0.508 -0.774,-0.829 -1.342,-0.829c-0.568,0 -1.087,0.321 -1.342,0.829l-5.153,10.307l-12.233,1.882c-0.559,0.086 -1.021,0.479 -1.198,1.016c-0.176,0.537 -0.035,1.128 0.365,1.527l8.462,8.463l-1.884,12.248c-0.086,0.56 0.149,1.119 0.609,1.448c0.46,0.328 1.066,0.37 1.567,0.11l10.807,-5.639l10.806,5.639c0.218,0.113 0.457,0.17 0.694,0.17c0.308,0 0.614,-0.095 0.873,-0.28c0.46,-0.329 0.695,-0.889 0.609,-1.448l-1.884,-12.248l8.462,-8.463c0.4,-0.4 0.542,-0.991 0.366,-1.528zM28.5,26.579h-3.08v3.08c0,0.828 -0.671,1.5 -1.5,1.5c-0.829,0 -1.5,-0.672 -1.5,-1.5v-3.08h-3.079c-0.829,0 -1.5,-0.672 -1.5,-1.5c0,-0.828 0.671,-1.5 1.5,-1.5h3.079v-3.079c0,-0.828 0.671,-1.5 1.5,-1.5c0.829,0 1.5,0.672 1.5,1.5v3.079h3.08c0.829,0 1.5,0.672 1.5,1.5c0,0.828 -0.671,1.5 -1.5,1.5z"></path></g></g></svg>