<svg version="1.1" xmlns="http://www.w3.org/2000/svg" xmlns:xlink="http://www.w3.org/1999/xlink" width="48px" height="48px" viewBox="0,0,256,256"><g fill="#ffffff" fill-rule="nonzero" stroke="none" stroke-width="1" stroke-linecap="butt" stroke-linejoin="miter" stroke-miterlimit="10" stroke-dasharray="" stroke-dashoffset="0" font-family="none" font-weight="none" font-size="none" text-anchor="none" style="mix-blend-mode: normal"><g transform="scale(5.33333,5.33333)"><path d="M24.00195,4c-1.33725,-0.00237 -2.6785,0.12758 -4,0.39258c-0.642,0.129 -1.12626,0.65759 -1.19727,1.30859l-0.44141,4.04492c-0.097,0.88 -0.61091,1.66933 -1.37891,2.11133c-0.766,0.442 -1.70462,0.49372 -2.51562,0.13672l-3.72852,-1.63867c-0.592,-0.262 -1.29161,-0.11005 -1.72461,0.37695c-1.804,2.029 -3.15081,4.35048 -4.00781,6.89648c-0.208,0.618 0.00816,1.3005 0.53516,1.6875l3.27148,2.40039c0.713,0.523 1.13867,1.36305 1.13867,2.24805c0,0.885 -0.42472,1.72409 -1.13672,2.24609l-3.29492,2.41602c-0.525,0.386 -0.74211,1.06459 -0.53711,1.68359c0.848,2.548 2.19028,4.8712 3.98828,6.9082c0.433,0.489 1.13156,0.64486 1.72656,0.38086l3.70898,-1.63086c0.808,-0.356 1.74958,-0.30628 2.51758,0.13672c0.766,0.442 1.27995,1.23038 1.37695,2.10938l0.44531,4.07227c0.071,0.648 0.55341,1.17564 1.19141,1.30664c1.313,0.269 2.66267,0.4043 4.01367,0.4043c1.318,0 2.64813,-0.13253 3.95313,-0.39453c0.517,-0.104 0.92061,-0.47222 1.09961,-0.94922c-2.989,-1.728 -5.00586,-4.9523 -5.00586,-8.6543c0,-1.056 0.16575,-2.07234 0.46875,-3.02734c-0.171,0.012 -0.34067,0.02539 -0.51367,0.02539c-3.866,0 -7,-3.134 -7,-7c0,-3.866 3.134,-7 7,-7c3.866,0 7,3.134 7,7c0,0.164 -0.01339,0.32533 -0.02539,0.48633c0.968,-0.312 1.99831,-0.48437 3.07031,-0.48437c1.466,0 2.85342,0.32362 4.10742,0.89063c-0.09,-0.276 -0.1543,-0.56142 -0.1543,-0.85742c0,-0.885 0.42667,-1.72605 1.13867,-2.24805l3.29492,-2.41406c0.525,-0.386 0.74211,-1.06459 0.53711,-1.68359c-0.848,-2.548 -2.19028,-4.87316 -3.98828,-6.91016c-0.433,-0.488 -1.13152,-0.64091 -1.72852,-0.37891l-3.70703,1.63086c-0.808,0.356 -1.74863,0.30433 -2.51562,-0.13867c-0.766,-0.442 -1.27995,-1.23038 -1.37695,-2.10937l-0.44727,-4.07031c-0.071,-0.648 -0.55145,-1.17759 -1.18945,-1.30859c-1.2985,-0.2655 -2.6315,-0.39997 -3.96875,-0.40234zM34,26c-4.411,0 -8,3.589 -8,8c0,4.411 3.589,8 8,8c1.665,0 3.21019,-0.51272 4.49219,-1.38672l4.94727,4.94727c0.293,0.294 0.67655,0.43945 1.06055,0.43945c0.384,0 0.76755,-0.14645 1.06055,-0.43945c0.585,-0.586 0.585,-1.53509 0,-2.12109l-4.94531,-4.94727c0.873,-1.282 1.38477,-2.82719 1.38477,-4.49219c0,-4.411 -3.589,-8 -8,-8zM34,29c2.757,0 5,2.243 5,5c0,2.757 -2.243,5 -5,5c-2.757,0 -5,-2.243 -5,-5c0,-2.757 2.243,-5 5,-5z"></path></g></g></svg>