<svg version="1.1" xmlns="http://www.w3.org/2000/svg" xmlns:xlink="http://www.w3.org/1999/xlink" width="48px" height="48px" viewBox="0,0,256,256"><g transform=""><g fill="#ffffff" fill-rule="nonzero" stroke="none" stroke-width="1" stroke-linecap="butt" stroke-linejoin="miter" stroke-miterlimit="10" stroke-dasharray="" stroke-dashoffset="0" font-family="none" font-weight="none" font-size="none" text-anchor="none" style="mix-blend-mode: normal"><g transform="scale(5.33333,5.33333)"><path d="M18.5,9h-9c-1.93,0 -3.5,1.57 -3.5,3.5v9c0,1.93 1.57,3.5 3.5,3.5h9c1.93,0 3.5,-1.57 3.5,-3.5v-9c0,-1.93 -1.57,-3.5 -3.5,-3.5zM18.5,27h-9c-1.93,0 -3.5,1.57 -3.5,3.5v9c0,1.93 1.57,3.5 3.5,3.5h9c1.93,0 3.5,-1.57 3.5,-3.5v-9c0,-1.93 -1.57,-3.5 -3.5,-3.5zM36.5,27h-9c-1.93,0 -3.5,1.57 -3.5,3.5v9c0,1.93 1.57,3.5 3.5,3.5h9c1.93,0 3.5,-1.57 3.5,-3.5v-9c0,-1.93 -1.57,-3.5 -3.5,-3.5zM42.839,12.525l-6.364,-6.364c-1.365,-1.365 -3.584,-1.365 -4.949,0l-6.364,6.364c-1.364,1.364 -1.364,3.585 0,4.949l6.365,6.365c0.682,0.681 1.577,1.021 2.474,1.021c0.896,0 1.792,-0.341 2.475,-1.022l6.364,-6.364c1.363,-1.364 1.363,-3.584 -0.001,-4.949z"></path></g></g></g></svg>