<svg version="1.1" xmlns="http://www.w3.org/2000/svg" xmlns:xlink="http://www.w3.org/1999/xlink" width="48px" height="48px" viewBox="0,0,256,256"><g fill="#ffffff" fill-rule="nonzero" stroke="none" stroke-width="1" stroke-linecap="butt" stroke-linejoin="miter" stroke-miterlimit="10" stroke-dasharray="" stroke-dashoffset="0" font-family="none" font-weight="none" font-size="none" text-anchor="none" style="mix-blend-mode: normal"><g transform="scale(5.33333,5.33333)"><path d="M11.86523,8c-1.01558,0 -1.83686,0.81065 -1.86133,1.82031c-0.96864,0.10344 -1.60317,0.18046 -1.68945,0.19141c-0.479,0.06 -0.89986,0.34748 -1.13086,0.77148c-0.171,0.313 -4.18359,7.78683 -4.18359,17.04883c0,1.372 0.05888,2.70961 0.17188,3.97461c0.312,3.481 2.9585,6.31844 6.4375,6.89844l1.64453,0.27344c0.656,0.11 1.29389,-0.21959 1.58789,-0.80859l2.89453,-5.78906c0.425,-0.852 1.28333,-1.38086 2.23633,-1.38086h12.05469c0.953,0 1.81033,0.52981 2.23633,1.38281l2.89453,5.78906c0.257,0.514 0.7798,0.82813 1.3418,0.82813c0.082,0 0.16309,-0.00748 0.24609,-0.02148l1.64648,-0.27344c3.479,-0.58 6.1255,-3.41744 6.4375,-6.89844c0.112,-1.265 0.16992,-2.60161 0.16992,-3.97461c0,-9.262 -4.01259,-16.73583 -4.18359,-17.04883c-0.231,-0.424 -0.65186,-0.71148 -1.13086,-0.77148c-0.08628,-0.01095 -0.72081,-0.08796 -1.68945,-0.19141c-0.02446,-1.00966 -0.84575,-1.82031 -1.86133,-1.82031h-3.13672c-0.624,0 -1.20673,0.31108 -1.55273,0.83008l-0.28711,0.42969c-2.26875,-0.143 -4.6815,-0.25977 -7.1582,-0.25977c-2.4767,0 -4.88945,0.11676 -7.1582,0.25977l-0.28711,-0.42969c-0.346,-0.519 -0.92873,-0.83008 -1.55273,-0.83008zM11.09375,15h0.81445c0.556,0 0.97777,0.50083 0.88477,1.04883l-0.10937,0.64648c-0.034,0.199 -0.13516,0.38063 -0.28516,0.51563l-0.64649,0.58398c-0.142,0.128 -0.35895,0.128 -0.50195,0l-0.64844,-0.58398c-0.15,-0.135 -0.2492,-0.31663 -0.2832,-0.51563l-0.11133,-0.64648c-0.094,-0.548 0.32972,-1.04883 0.88672,-1.04883zM36,15c0.552,0 1,0.448 1,1c0,0.552 -0.448,1 -1,1c-0.552,0 -1,-0.448 -1,-1c0,-0.552 0.448,-1 1,-1zM34,17c0.552,0 1,0.448 1,1c0,0.552 -0.448,1 -1,1c-0.552,0 -1,-0.448 -1,-1c0,-0.552 0.448,-1 1,-1zM38,17c0.552,0 1,0.448 1,1c0,0.552 -0.448,1 -1,1c-0.552,0 -1,-0.448 -1,-1c0,-0.552 0.448,-1 1,-1zM9.04883,17.20703l0.64648,0.10938c0.199,0.034 0.38063,0.13516 0.51563,0.28516l0.58398,0.64648c0.128,0.142 0.128,0.35895 0,0.50195l-0.58398,0.64844c-0.135,0.15 -0.31663,0.2492 -0.51563,0.2832l-0.64648,0.11133c-0.548,0.094 -1.04883,-0.32972 -1.04883,-0.88672v-0.81445c0,-0.556 0.50083,-0.97777 1.04883,-0.88477zM13.95117,17.20703c0.548,-0.093 1.04883,0.32972 1.04883,0.88672v0.8125c0,0.556 -0.50083,0.97972 -1.04883,0.88672l-0.64648,-0.11133c-0.199,-0.034 -0.38063,-0.1332 -0.51563,-0.2832l-0.58398,-0.64844c-0.128,-0.142 -0.128,-0.35895 0,-0.50195l0.58398,-0.64648c0.135,-0.15 0.31663,-0.25116 0.51563,-0.28516zM36,19c0.552,0 1,0.448 1,1c0,0.552 -0.448,1 -1,1c-0.552,0 -1,-0.448 -1,-1c0,-0.552 0.448,-1 1,-1zM11.5,19.10938c0.08962,0 0.1785,0.0317 0.25,0.0957l0.64844,0.58203c0.15,0.135 0.2492,0.31858 0.2832,0.51758l0.11133,0.64648c0.094,0.549 -0.32972,1.04883 -0.88672,1.04883h-0.81445c-0.556,0 -0.97777,-0.49983 -0.88477,-1.04883l0.10938,-0.64648c0.034,-0.199 0.13516,-0.38258 0.28516,-0.51758l0.64649,-0.58203c0.071,-0.064 0.16233,-0.0957 0.25195,-0.0957zM19.5,21c1.381,0 2.5,1.119 2.5,2.5c0,1.381 -1.119,2.5 -2.5,2.5c-1.381,0 -2.5,-1.119 -2.5,-2.5c0,-1.381 1.119,-2.5 2.5,-2.5zM28.5,21c1.381,0 2.5,1.119 2.5,2.5c0,1.381 -1.119,2.5 -2.5,2.5c-1.381,0 -2.5,-1.119 -2.5,-2.5c0,-1.381 1.119,-2.5 2.5,-2.5z"></path></g></g></svg>