<svg version="1.1" xmlns="http://www.w3.org/2000/svg" xmlns:xlink="http://www.w3.org/1999/xlink" width="48px" height="48px" viewBox="0,0,256,256"><g fill="#ffffff" fill-rule="nonzero" stroke="none" stroke-width="1" stroke-linecap="butt" stroke-linejoin="miter" stroke-miterlimit="10" stroke-dasharray="" stroke-dashoffset="0" font-family="none" font-weight="none" font-size="none" text-anchor="none" style="mix-blend-mode: normal"><g transform="scale(5.33333,5.33333)"><path d="M36.5,5c-2.02384,0.00254 -3.93102,0.94763 -5.15889,2.55645c-1.22786,1.60882 -1.63629,3.69777 -1.10479,5.65058l-0.11523,0.05664l-13.38281,6.68945l-0.11523,0.05664c-1.22972,-1.58131 -3.11986,-2.50729 -5.12305,-2.50977c-3.58985,0 -6.5,2.91015 -6.5,6.5c0,3.58985 2.91015,6.5 6.5,6.5c2.00456,-0.00127 3.89639,-0.92737 5.12695,-2.50977l0.11133,0.05664l13.38281,6.68945l0.10938,0.05469c-0.5325,1.95407 -0.12372,4.04468 1.10558,5.65426c1.2293,1.60958 3.13863,2.55417 5.16395,2.55472c3.58985,0 6.5,-2.91015 6.5,-6.5c0,-3.58985 -2.91015,-6.5 -6.5,-6.5c-1.84252,0.00258 -3.59738,0.78702 -4.82812,2.1582l-0.21094,-0.10547l-13.38086,-6.68945l-0.20898,-0.10352c0.16343,-0.8313 0.16276,-1.68653 -0.00195,-2.51758l0.21094,-0.10547l13.38086,-6.68945l0.20508,-0.10352c1.23246,1.37198 2.98972,2.15583 4.83398,2.15625c3.58985,0 6.5,-2.91015 6.5,-6.5c0,-3.58985 -2.91015,-6.5 -6.5,-6.5z"></path></g></g></svg>