<svg version="1.1" xmlns="http://www.w3.org/2000/svg" xmlns:xlink="http://www.w3.org/1999/xlink" width="48px" height="48px" viewBox="0,0,256,256"><g fill="#ffffff" fill-rule="nonzero" stroke="none" stroke-width="1" stroke-linecap="butt" stroke-linejoin="miter" stroke-miterlimit="10" stroke-dasharray="" stroke-dashoffset="0" font-family="none" font-weight="none" font-size="none" text-anchor="none" style="mix-blend-mode: normal"><g transform="scale(5.33333,5.33333)"><path d="M43.952,9.644l-1.98,-2.378c-0.686,-0.823 -1.682,-1.258 -2.764,-1.266c-1.07,0.019 -2.062,0.513 -2.719,1.358l-2.833,3.642h-19.154c-0.025,0 -0.048,0.006 -0.073,0.007c-0.025,0.001 -0.05,-0.002 -0.075,0l-2.839,-3.649c-0.657,-0.845 -1.648,-1.339 -2.719,-1.358c-1.097,-0.001 -2.078,0.443 -2.764,1.267l-1.979,2.376c-1.387,1.663 -1.399,4.087 -0.031,5.765l3.98,4.88v16.265c0,3.032 2.467,5.5 5.504,5.5l20.996,-0.053c3.033,0 5.5,-2.468 5.5,-5.5v-16.213l3.98,-4.88c1.369,-1.678 1.356,-4.101 -0.03,-5.763zM28.502,27h-9c-0.829,0 -1.5,-0.672 -1.5,-1.5c0,-0.828 0.671,-1.5 1.5,-1.5h9c0.829,0 1.5,0.672 1.5,1.5c0,0.828 -0.671,1.5 -1.5,1.5zM10.908,18l3.323,-4.027c0.052,0.01 19.025,0.025 20.011,0.025l2.951,4.002z"></path></g></g></svg>