<svg version="1.1" xmlns="http://www.w3.org/2000/svg" xmlns:xlink="http://www.w3.org/1999/xlink" width="48px" height="48px" viewBox="0,0,256,256"><g fill="#ffffff" fill-rule="nonzero" stroke="none" stroke-width="1" stroke-linecap="butt" stroke-linejoin="miter" stroke-miterlimit="10" stroke-dasharray="" stroke-dashoffset="0" font-family="none" font-weight="none" font-size="none" text-anchor="none" style="mix-blend-mode: normal"><g transform="scale(5.33333,5.33333)"><path d="M5.48438,3.98438c-0.61064,0.00015 -1.16026,0.37042 -1.38978,0.93629c-0.22952,0.56587 -0.09314,1.21439 0.34486,1.63988l5.99609,5.99609c-1.53826,2.45135 -2.43555,5.34129 -2.43555,8.44336c0,0.672 0.05372,1.339 0.13672,2h11.28516c-0.25187,-0.57612 -0.39873,-1.20816 -0.41602,-1.87305l3.87305,3.87305h-16.37891c-0.829,0 -1.5,0.671 -1.5,1.5v11c0,3.033 2.467,5.5 5.5,5.5h27c0.97216,0 1.88117,-0.26037 2.67383,-0.70508l1.26563,1.26563c0.37623,0.39185 0.9349,0.54969 1.46055,0.41265c0.52565,-0.13704 0.93616,-0.54754 1.07319,-1.07319c0.13704,-0.52565 -0.0208,-1.08432 -0.41265,-1.46055l-1.26172,-1.26172c0.00044,-0.00079 0.00151,-0.00116 0.00195,-0.00195l-15.17383,-15.17578h-0.00586l-7.05273,-7.05273c0.00089,-0.00114 0.00107,-0.00277 0.00195,-0.00391l-7.79492,-7.79297c-0.00062,0.00067 -0.00133,0.00128 -0.00195,0.00195l-5.71289,-5.71289c-0.28248,-0.2909 -0.67069,-0.45506 -1.07617,-0.45508zM24,5c-3.553,0 -6.82833,1.17948 -9.48633,3.14648l8.08008,8.07812c0.449,-0.132 0.91425,-0.22461 1.40625,-0.22461c2.761,0 5,2.239 5,5c0,0.494 -0.07789,0.96992 -0.21289,1.41992l0.58008,0.58008h10.49609c0.083,-0.661 0.13672,-1.328 0.13672,-2c0,-8.822 -7.178,-16 -16,-16zM28.4668,9.66602c0.19487,-0.00458 0.39344,0.02972 0.58594,0.10547c2.81,1.114 5.06078,3.36478 6.17578,6.17578c0.305,0.77 -0.06984,1.64227 -0.83984,1.94726c-0.182,0.072 -0.36874,0.10547 -0.55273,0.10547c-0.597,0 -1.16253,-0.35827 -1.39453,-0.94727c-0.811,-2.045 -2.45014,-3.68219 -4.49414,-4.49219c-0.77,-0.305 -1.1468,-1.17727 -0.8418,-1.94727c0.228,-0.5775 0.7767,-0.93353 1.36133,-0.94727zM31.36719,25l11.63281,11.63281v-10.13281c0,-0.829 -0.671,-1.5 -1.5,-1.5z"></path></g></g></svg>