<?xml version="1.0" encoding="UTF-8"?>
<svg version="1.1" xmlns="http://www.w3.org/2000/svg" width="50" height="50">
<path d="M0 0 C0 1.98 0 3.96 0 6 C9.9 6 19.8 6 30 6 C30 14.58 30 23.16 30 32 C30.99 32.33 31.98 32.66 33 33 C33 34.65 33 36.3 33 38 C32.01 38.33 31.02 38.66 30 39 C30 40.65 30 42.3 30 44 C26.45793787 45.67264045 24.72637481 46.11791244 21 45 C19.515 45.495 19.515 45.495 18 46 C17.01 45.34 16.02 44.68 15 44 C14.8125 41.375 14.8125 41.375 15 39 C14.32420898 38.9906543 13.64841797 38.98130859 12.95214844 38.97167969 C9.8840289 38.91792699 6.81742613 38.83429008 3.75 38.75 C2.68652344 38.73582031 1.62304688 38.72164062 0.52734375 38.70703125 C-0.49746094 38.67480469 -1.52226562 38.64257812 -2.578125 38.609375 C-3.52075195 38.58842773 -4.46337891 38.56748047 -5.43457031 38.54589844 C-8.83562711 37.82218669 -9.99214671 36.82951083 -12 34 C-12.51757812 30.85546875 -12.51757812 30.85546875 -12.53125 27.1875 C-12.5350769 26.53676514 -12.53890381 25.88603027 -12.54284668 25.21557617 C-12.54556076 23.84389696 -12.53823453 22.47216556 -12.52148438 21.10058594 C-12.50006119 19.00598315 -12.52129637 16.91480916 -12.546875 14.8203125 C-12.54423163 13.48436746 -12.53910643 12.14842455 -12.53125 10.8125 C-12.52673828 9.60207031 -12.52222656 8.39164063 -12.51757812 7.14453125 C-11.2624999 -0.48066098 -6.46317005 -0.430878 0 0 Z " fill="#025EA8" transform="translate(16,4)"/>
<path d="M0 0 C0.98871094 -0.01417969 1.97742188 -0.02835938 2.99609375 -0.04296875 C5.5625 0.1875 5.5625 0.1875 7.5625 2.1875 C7.5625 3.5075 7.5625 4.8275 7.5625 6.1875 C8.5525 6.5175 9.5425 6.8475 10.5625 7.1875 C10.5625 8.8375 10.5625 10.4875 10.5625 12.1875 C9.5725 12.5175 8.5825 12.8475 7.5625 13.1875 C7.5625 14.8375 7.5625 16.4875 7.5625 18.1875 C4.02043787 19.86014045 2.28887481 20.30541244 -1.4375 19.1875 C-2.4275 19.5175 -3.4175 19.8475 -4.4375 20.1875 C-5.4275 19.5275 -6.4175 18.8675 -7.4375 18.1875 C-7.625 15.5625 -7.625 15.5625 -7.4375 13.1875 C-8.4275 12.8575 -9.4175 12.5275 -10.4375 12.1875 C-10.625 9.8125 -10.625 9.8125 -10.4375 7.1875 C-9.4475 6.5275 -8.4575 5.8675 -7.4375 5.1875 C-6.78536708 3.16286745 -6.78536708 3.16286745 -6.4375 1.1875 C-4.69900372 -0.55099628 -2.3588363 0.01533704 0 0 Z " fill="#7D8892" transform="translate(38.4375,29.8125)"/>
<path d="M0 0 C-0.33 7.59 -0.66 15.18 -1 23 C-3.64 23.66 -6.28 24.32 -9 25 C-10.96730878 26.45634303 -10.96730878 26.45634303 -12 28 C-12.11618764 24.08358289 -12.18724654 20.16760899 -12.25 16.25 C-12.28351562 15.13882812 -12.31703125 14.02765625 -12.3515625 12.8828125 C-12.36445313 11.81289062 -12.37734375 10.74296875 -12.390625 9.640625 C-12.41157227 8.65610352 -12.43251953 7.67158203 -12.45410156 6.65722656 C-12 4 -12 4 -10.47558594 1.64746094 C-8 0 -8 0 0 0 Z " fill="#1A9BE1" transform="translate(16,4)"/>
<path d="M0 0 C2.4375 0.8125 2.4375 0.8125 4.4375 3.8125 C4.1133631 7.13490324 3.82973697 8.42026303 1.4375 10.8125 C-4.01704545 10.35795455 -4.01704545 10.35795455 -6.5625 7.8125 C-6.375 4.8125 -6.375 4.8125 -5.5625 1.8125 C-2.5625 -0.1875 -2.5625 -0.1875 0 0 Z " fill="#C5CDD3" transform="translate(39.5625,34.1875)"/>
<path d="M0 0 C1.98 0 3.96 0 6 0 C6 1.98 6 3.96 6 6 C4.9171875 6.12375 4.9171875 6.12375 3.8125 6.25 C0.44686746 7.14750201 -1.41612816 8.7114278 -4 11 C-5.32 10.01 -6.64 9.02 -8 8 C-10.97 10.475 -10.97 10.475 -14 13 C-14 10 -14 10 -12.46875 8.39453125 C-11.8190625 7.87246094 -11.169375 7.35039062 -10.5 6.8125 C-9.8503125 6.28269531 -9.200625 5.75289062 -8.53125 5.20703125 C-8.0259375 4.80871094 -7.520625 4.41039062 -7 4 C-5.68 4.99 -4.36 5.98 -3 7 C-1.4166747 5.7511573 -1.4166747 5.7511573 0 4 C0 2.68 0 1.36 0 0 Z " fill="#2BB0E5" transform="translate(34,16)"/>
<path d="M0 0 C0 1.65 0 3.3 0 5 C-0.99 5.33 -1.98 5.66 -3 6 C-3 7.65 -3 9.3 -3 11 C-4.65 11.66 -6.3 12.32 -8 13 C-8.99 12.01 -9.98 11.02 -11 10 C-9.35718838 8.33035479 -7.71067239 6.6643536 -6.0625 5 C-5.14597656 4.071875 -4.22945312 3.14375 -3.28515625 2.1875 C-1 0 -1 0 0 0 Z " fill="#6E7A84" transform="translate(49,37)"/>
<path d="M0 0 C1.65 0 3.3 0 5 0 C5 1.65 5 3.3 5 5 C3.35 5 1.7 5 0 5 C0 3.35 0 1.7 0 0 Z " fill="#175F9F" transform="translate(36,37)"/>
</svg>
