<?xml version="1.0" encoding="UTF-8" standalone="no"?>
<!-- Created with Inkscape (http://www.inkscape.org/) -->

<svg
   width="48"
   height="48"
   viewBox="0 0 48 48"
   version="1.1"
   id="svg1"
   inkscape:version="1.3.2 (091e20e, 2023-11-25, custom)"
   sodipodi:docname="icon-custom-mods.svg"
   xmlns:inkscape="http://www.inkscape.org/namespaces/inkscape"
   xmlns:sodipodi="http://sodipodi.sourceforge.net/DTD/sodipodi-0.dtd"
   xmlns="http://www.w3.org/2000/svg"
   xmlns:svg="http://www.w3.org/2000/svg">
  <sodipodi:namedview
     id="namedview1"
     pagecolor="#6d6d6d"
     bordercolor="#000000"
     borderopacity="0.25"
     inkscape:showpageshadow="2"
     inkscape:pageopacity="0.0"
     inkscape:pagecheckerboard="true"
     inkscape:deskcolor="#d1d1d1"
     inkscape:document-units="px"
     showgrid="true"
     inkscape:zoom="11.313709"
     inkscape:cx="6.8500969"
     inkscape:cy="29.831067"
     inkscape:window-width="1920"
     inkscape:window-height="1147"
     inkscape:window-x="-8"
     inkscape:window-y="-8"
     inkscape:window-maximized="1"
     inkscape:current-layer="layer1">
    <inkscape:grid
       id="grid54"
       units="px"
       originx="0"
       originy="0"
       spacingx="1"
       spacingy="1"
       empcolor="#0099e5"
       empopacity="0.30196078"
       color="#0099e5"
       opacity="0.14901961"
       empspacing="5"
       dotted="false"
       gridanglex="30"
       gridanglez="30"
       visible="true" />
  </sodipodi:namedview>
  <defs
     id="defs1">
    <inkscape:path-effect
       effect="fillet_chamfer"
       id="path-effect3"
       is_visible="true"
       lpeversion="1"
       nodesatellites_param="F,0,0,1,0,0,0,1 @ F,0,0,1,0,0,0,1 @ F,0,0,1,0,0,0,1 @ F,0,0,1,0,0,0,1 @ F,0,0,1,0,0,0,1 @ F,0,0,1,0,0,0,1 @ F,0,0,1,0,4.759076,0,1 @ F,0,0,1,0,0,0,1 @ F,0,0,1,0,0,0,1 @ F,0,0,1,0,0,0,1 @ F,0,0,1,0,0,0,1 @ F,0,0,1,0,0,0,1 @ F,0,0,1,0,0,0,1 @ F,0,0,1,0,0,0,1 @ F,0,0,1,0,4.7590765,0,1 @ F,0,0,1,0,0,0,1 @ F,0,0,1,0,0,0,1 @ F,0,0,1,0,0,0,1 @ F,0,0,1,0,0,0,1 @ F,0,0,1,0,0,0,1 @ F,0,0,1,0,0,0,1 | F,0,0,1,0,0,0,1 @ F,0,0,1,0,4.7590765,0,1 @ F,0,0,1,0,0,0,1 @ F,0,0,1,0,0,0,1 @ F,0,0,1,0,0,0,1 @ F,0,0,1,0,0,0,1 @ F,0,0,1,0,0,0,1 @ F,0,0,1,0,0,0,1 @ F,0,0,1,0,0,0,1 @ F,0,0,1,0,4.759076,0,1 @ F,0,0,1,0,0,0,1"
       radius="0"
       unit="px"
       method="auto"
       mode="F"
       chamfer_steps="1"
       flexible="false"
       use_knot_distance="true"
       apply_no_radius="true"
       apply_with_radius="true"
       only_selected="false"
       hide_knots="false" />
    <inkscape:path-effect
       effect="fillet_chamfer"
       id="path-effect2"
       is_visible="true"
       lpeversion="1"
       nodesatellites_param="F,0,0,1,0,0,0,1 @ F,0,0,1,0,0,0,1 @ F,0,0,1,0,0,0,1 @ F,0,0,1,0,0,0,1 @ F,0,0,1,0,0,0,1 @ F,0,0,1,0,0,0,1 @ F,0,0,1,0,0,0,1 @ F,0,0,1,0,0,0,1 @ F,0,0,1,0,0,0,1 @ F,0,0,1,0,0,0,1 @ F,0,0,1,0,0,0,1 @ F,0,0,1,0,0,0,1 @ F,0,0,1,0,0,0,1 @ F,0,0,1,0,0,0,1 @ F,0,0,1,0,0,0,1 @ F,0,0,1,0,0,0,1 @ F,0,0,1,0,0,0,1 @ F,0,0,1,0,0,0,1 @ F,0,0,1,0,0,0,1 @ F,0,0,1,0,0,0,1 @ F,0,0,1,0,0,0,1 | F,0,0,1,0,0,0,1 @ F,0,0,1,0,0,0,1 @ F,0,0,1,0,0,0,1 @ F,0,0,1,0,0,0,1 @ F,0,0,1,0,0,0,1 @ F,0,0,1,0,0,0,1 @ F,0,0,1,0,0,0,1 @ F,0,0,1,0,0,0,1 @ F,0,0,1,0,0,0,1 @ F,0,0,1,0,0,0,1 @ F,0,0,1,0,0,0,1"
       radius="0"
       unit="px"
       method="auto"
       mode="F"
       chamfer_steps="1"
       flexible="false"
       use_knot_distance="true"
       apply_no_radius="true"
       apply_with_radius="true"
       only_selected="false"
       hide_knots="false" />
    <inkscape:path-effect
       effect="fillet_chamfer"
       id="path-effect1"
       is_visible="true"
       lpeversion="1"
       nodesatellites_param="F,0,0,1,0,4.7590765,0,1 @ F,0,0,1,0,0,0,1 @ F,0,0,1,0,0,0,1 @ F,0,0,1,0,0,0,1 @ F,0,0,1,0,0,0,1 @ F,0,0,1,0,0,0,1 @ F,0,0,1,0,0,0,1 @ F,0,0,1,0,0,0,1 @ F,0,0,1,0,4.759076,0,1 @ F,0,0,1,0,0,0,1 @ F,0,0,1,0,0,0,1 @ F,0,0,1,0,0,0,1 @ F,0,0,1,0,0,0,1 @ F,0,0,1,0,0,0,1 @ F,0,0,1,0,0,0,1 @ F,0,0,1,0,0,0,1 @ F,0,0,1,0,4.759076,0,1 @ F,0,0,1,0,0,0,1 @ F,0,0,1,0,0,0,1 @ F,0,0,1,0,0,0,1 @ F,0,0,1,0,0,0,1 @ F,0,0,1,0,0,0,1 @ F,0,0,1,0,0,0,1 @ F,0,0,1,0,0,0,1 @ F,0,0,1,0,4.712871,0,1 @ F,0,0,1,0,0,0,1 @ F,0,0,1,0,0,0,1 @ F,0,0,1,0,0,0,1 @ F,0,0,1,0,0,0,1 @ F,0,0,1,0,0,0,1 @ F,0,0,1,0,0,0,1 @ F,0,0,1,0,0,0,1"
       radius="0"
       unit="px"
       method="auto"
       mode="F"
       chamfer_steps="1"
       flexible="false"
       use_knot_distance="true"
       apply_no_radius="true"
       apply_with_radius="true"
       only_selected="false"
       hide_knots="false" />
  </defs>
  <g
     inkscape:groupmode="layer"
     id="layer2"
     inkscape:label="Lager 2">
    <path
       id="rect1"
       style="display:inline;fill:#ffffff"
       inkscape:label="rect1"
       d="M 10.091797,5.6503906 C 7.4766761,5.6383318 5.3467341,7.7481633 5.3339844,10.363281 H 43.40625 C 43.393502,7.7473967 41.262366,5.637249 38.646484,5.6503906 H 33.888672 29.128906 24.369141 19.611328 14.851562 Z M 5.3339844,15.076172 v 4.71289 4.712891 4.712891 4.71289 4.712891 c 0.012749,2.615118 2.1426913,4.72495 4.7578126,4.712891 h 4.759765 4.759766 4.757813 1.976562 c 0.1237,-16.911502 0.148974,-16.942084 17.060431,-16.984335 v -1.867188 -4.712891 -4.71289 z M 38.050781,33.125 c 0.0011,0.0027 0.0028,0.0094 0.0039,0.01172 10e-4,0.0023 -7.48e-4,-0.0061 0,-0.0078 -0.0014,-0.0012 -0.0025,-0.0027 -0.0039,-0.0039 z m 3.376953,2.212891 c -0.0079,0.0037 -0.01558,0.008 -0.02344,0.01172 0.0078,-1.42e-4 0.01562,-0.0018 0.02344,-0.002 1.02e-4,-0.0033 -1.03e-4,-0.0065 0,-0.0098 z m -2.25,4.285156 c -0.01304,0.0015 -0.02603,0.0043 -0.03906,0.0059 0.01108,5.16e-4 0.02211,0.0015 0.0332,0.002 0.0019,-0.0026 0.004,-0.0051 0.0059,-0.0078 z m -3.210937,0.958984 c 2.02e-4,0.0031 -1.52e-4,0.0068 0,0.0098 0.02721,-4.04e-4 0.05487,-0.0018 0.08203,-0.002 -0.02732,-0.0029 -0.05471,-0.0049 -0.08203,-0.0078 z"
       sodipodi:nodetypes="ccccccccccccccccccccccccccccccccccccccccccccc" />
  </g>
  <g
     inkscape:label="Lager 1"
     inkscape:groupmode="layer"
     id="layer1">
    <g
       id="g18"
       style="display:inline"
       transform="translate(1.6464466,1.4696699)">
      <path
         style="fill:#ffffff;fill-opacity:1;stroke-width:0.0132013"
         d="m 40.514661,35.814104 c -0.09428,-0.09498 -0.539743,-0.536238 -0.989908,-0.980569 -0.861967,-0.850795 -0.957121,-0.935295 -1.254126,-1.113711 -0.38803,-0.233095 -0.792228,-0.373118 -1.273927,-0.441316 -0.07752,-0.01098 -0.241355,-0.01746 -0.429043,-0.01698 -0.309827,7.93e-4 -0.501365,0.02189 -0.725038,0.07985 l -0.07826,0.02028 -0.951489,-0.951405 -0.951488,-0.951404 0.0035,-0.06936 c 0.07274,-1.453772 0.815795,-2.793064 2.031106,-3.660874 0.589752,-0.421121 1.317304,-0.708879 2.064434,-0.816518 0.276616,-0.03985 0.489296,-0.05117 0.811881,-0.04322 0.40641,0.01002 0.713034,0.05196 1.083499,0.148218 0.398819,0.103622 0.532832,0.179517 0.651647,0.369047 0.127424,0.203261 0.130371,0.487761 0.0073,0.702497 -0.02347,0.04094 -0.43466,0.462875 -1.167974,1.198493 -0.622467,0.624422 -1.15067,1.163475 -1.173785,1.197895 -0.0652,0.09708 -0.143397,0.269976 -0.17471,0.386263 -0.04072,0.15123 -0.04068,0.443089 7.6e-5,0.59406 0.112077,0.415115 0.418371,0.727058 0.817292,0.832362 0.346033,0.09134 0.781736,0.0098 1.078362,-0.201866 0.03654,-0.02607 0.565443,-0.544266 1.175344,-1.151546 0.828077,-0.824518 1.125627,-1.112862 1.174917,-1.138566 0.279602,-0.145809 0.616978,-0.0937 0.821151,0.126833 0.08908,0.09622 0.133263,0.186956 0.193538,0.397469 0.285862,0.998376 0.246977,2.041477 -0.11187,3.000994 -0.37501,1.002738 -1.119227,1.889109 -2.052856,2.444978 -0.168979,0.100608 -0.376872,0.210794 -0.397715,0.210794 -0.0057,0 -0.08753,-0.07771 -0.181811,-0.172695 z"
         id="path7" />
      <path
         style="fill:#ffffff;fill-opacity:1;stroke-width:0.0186695"
         d="m 40.851497,43.34999 c -0.411116,-0.04681 -0.804212,-0.203338 -1.150977,-0.458323 -0.139734,-0.102749 -4.813085,-4.739878 -4.94694,-4.908598 -0.551339,-0.69494 -0.66209,-1.665682 -0.279971,-2.45396 l 0.0764,-0.157613 -1.685986,-1.685511 -1.685985,-1.68551 -0.08401,0.05794 c -0.04621,0.03187 -0.151223,0.0895 -0.233369,0.12807 -0.694758,0.326244 -1.528348,0.08725 -1.964758,-0.563291 -0.170393,-0.254 -1.791557,-2.806013 -1.836412,-2.890852 -0.03817,-0.0722 -0.04444,-0.110274 -0.04458,-0.270708 -2.56e-4,-0.293389 0.01299,-0.313563 0.586574,-0.89316 0.262583,-0.265337 0.525093,-0.51837 0.583354,-0.562295 0.18996,-0.143214 0.451546,-0.178697 0.654745,-0.08881 0.100907,0.04464 2.871589,1.804786 3.022133,1.919891 0.375994,0.287483 0.599863,0.750285 0.599475,1.239287 -2.4e-4,0.303174 -0.07464,0.559896 -0.242824,0.837862 l -0.08335,0.137757 1.697167,1.697167 1.697166,1.697167 0.120693,-0.05454 c 0.770109,-0.347995 1.657542,-0.24693 2.342361,0.266761 0.154557,0.115935 4.800562,4.727816 4.943508,4.907198 0.45612,0.572386 0.615982,1.320741 0.434751,2.035176 -0.187347,0.738542 -0.746733,1.357011 -1.464205,1.618856 -0.310031,0.113147 -0.738958,0.16602 -1.054961,0.130043 z"
         id="path8" />
      <path
         style="fill:#ffffff;fill-opacity:1;stroke-width:0.0186695"
         d="m 28.965708,43.286046 c -0.983968,-0.161102 -1.761603,-0.92932 -1.932454,-1.909052 -0.0355,-0.203596 -0.03576,-0.58988 -5.25e-4,-0.791933 0.05389,-0.309008 0.178122,-0.617788 0.358712,-0.891558 0.124113,-0.188152 0.337412,-0.406686 3.141437,-3.218527 l 1.894871,-1.900152 0.51093,0.51093 0.51093,0.51093 -0.04768,0.213045 c -0.167925,0.750272 -0.06887,1.534362 0.280375,2.219425 0.157247,0.308445 0.322928,0.536958 0.590209,0.814037 0.120651,0.125074 0.219366,0.23485 0.219366,0.243946 0,0.0091 -0.838026,0.853268 -1.862281,1.875939 -1.580708,1.578264 -1.886505,1.875273 -2.022494,1.964375 -0.251721,0.164929 -0.517227,0.275193 -0.819935,0.340518 -0.191929,0.04142 -0.621199,0.05087 -0.821457,0.01808 z"
         id="path9" />
    </g>
  </g>
</svg>
