<svg version="1.1" xmlns="http://www.w3.org/2000/svg" xmlns:xlink="http://www.w3.org/1999/xlink" width="48px" height="48px" viewBox="0,0,256,256"><g fill="#ffffff" fill-rule="nonzero" stroke="none" stroke-width="1" stroke-linecap="butt" stroke-linejoin="miter" stroke-miterlimit="10" stroke-dasharray="" stroke-dashoffset="0" font-family="none" font-weight="none" font-size="none" text-anchor="none" style="mix-blend-mode: normal"><g transform="scale(5.33333,5.33333)"><path d="M17.5,4c-2.48,0 -4.5,2.02 -4.5,4.5v26c0,2.48 2.02,4.5 4.5,4.5h0.50977c-0.01,-0.17 -0.00977,-0.33 -0.00977,-0.5c0,-5.24 4.26,-9.5 9.5,-9.5h11c0.51,0 1.01,0.03914 1.5,0.11914v-20.61914c0,-2.48 -2.02,-4.5 -4.5,-4.5zM11,9.25977c-1.75,0.62 -3,2.29023 -3,4.24023v21c0,5.24 4.26,9.5 9.5,9.5h2.25c-0.64,-0.9 -1.12016,-1.91 -1.41016,-3h-0.83984c-3.58,0 -6.5,-2.92 -6.5,-6.5zM27.5,31c-4.136,0 -7.5,3.364 -7.5,7.5c0,4.136 3.364,7.5 7.5,7.5h2c0.829,0 1.5,-0.671 1.5,-1.5c0,-0.829 -0.671,-1.5 -1.5,-1.5h-2c-2.481,0 -4.5,-2.019 -4.5,-4.5c0,-2.481 2.019,-4.5 4.5,-4.5h2c0.829,0 1.5,-0.671 1.5,-1.5c0,-0.829 -0.671,-1.5 -1.5,-1.5zM36.5,31c-0.829,0 -1.5,0.671 -1.5,1.5c0,0.829 0.671,1.5 1.5,1.5h2c2.481,0 4.5,2.019 4.5,4.5c0,2.481 -2.019,4.5 -4.5,4.5h-2c-0.829,0 -1.5,0.671 -1.5,1.5c0,0.829 0.671,1.5 1.5,1.5h2c4.136,0 7.5,-3.364 7.5,-7.5c0,-4.136 -3.364,-7.5 -7.5,-7.5zM27.5,37c-0.829,0 -1.5,0.671 -1.5,1.5c0,0.829 0.671,1.5 1.5,1.5h11c0.829,0 1.5,-0.671 1.5,-1.5c0,-0.829 -0.671,-1.5 -1.5,-1.5z"></path></g></g></svg>