<svg version="1.1" xmlns="http://www.w3.org/2000/svg" xmlns:xlink="http://www.w3.org/1999/xlink" width="48px" height="48px" viewBox="0,0,256,256"><g fill="#ffffff" fill-rule="nonzero" stroke="none" stroke-width="1" stroke-linecap="butt" stroke-linejoin="miter" stroke-miterlimit="10" stroke-dasharray="" stroke-dashoffset="0" font-family="none" font-weight="none" font-size="none" text-anchor="none" style="mix-blend-mode: normal"><g transform="scale(5.33333,5.33333)"><path d="M9.33398,6.00977c-0.33013,0.03638 -0.64653,0.18169 -0.89453,0.42969l-2,2c-0.497,0.498 -0.58308,1.27223 -0.20508,1.86523l3.85547,6.04883c0.568,0.911 1.50431,1.50205 2.57031,1.62305c0.134,0.015 0.26934,0.02344 0.40234,0.02344c0.76287,0 1.48968,-0.25943 2.0957,-0.7207l7.34375,7.34375c-1.09417,1.9489 -0.82646,4.4667 0.82031,6.13086l9.89063,9.83594c0.967,0.974 2.25591,1.51258 3.62891,1.51758h0.01953c1.366,0 2.65109,-0.53019 3.62109,-1.49219c0.973,-0.967 1.51258,-2.25591 1.51758,-3.62891c0.005,-1.373 -0.52328,-2.66572 -1.48828,-3.63672l-9.88086,-9.82422c-0.967,-0.977 -2.25586,-1.51939 -3.63086,-1.52539h-0.02344c-0.81271,0 -1.58688,0.2078 -2.29297,0.5625l-7.4082,-7.4082c0.54064,-0.71273 0.80381,-1.59377 0.70117,-2.49805c-0.122,-1.065 -0.71333,-2.0005 -1.61133,-2.5625l-6.06055,-3.85937c-0.2975,-0.1885 -0.64058,-0.26098 -0.9707,-0.22461zM32.11914,6.01758c-0.93538,-0.0555 -1.90503,0.01311 -2.89453,0.22461c-4.149,0.887 -7.40898,4.32272 -8.08398,8.51172c-0.071,0.441 -0.11386,0.87564 -0.13086,1.30664l4.17773,4.17773c0.587,-0.158 1.18406,-0.23828 1.78906,-0.23828c1.941,0.009 3.73317,0.76119 5.07617,2.11719l3.90234,3.87891c3.111,-1.475 5.42955,-4.4448 5.93555,-7.9668c0.243,-1.692 0.07394,-3.31497 -0.41406,-4.79297c-0.344,-1.04 -1.6957,-1.31697 -2.4707,-0.54297l-4.46094,4.45899c-1.035,1.035 -2.81617,1.12445 -3.82617,0.06445c-0.461,-0.484 -0.71484,-1.11806 -0.71484,-1.78906c0,-0.693 0.26977,-1.34298 0.75977,-1.83398l4.58398,-4.58398c0.773,-0.773 0.49694,-2.1227 -0.53906,-2.4707c-0.853,-0.2865 -1.75408,-0.46598 -2.68945,-0.52148zM17.88281,22.83203l-10.40039,10.45313c-0.961,0.968 -1.48742,2.25509 -1.48242,3.62109c0.005,1.366 0.54177,2.64838 1.50977,3.60938c0.964,0.958 2.24156,1.48438 3.60156,1.48438h0.01953c1.366,-0.005 2.64738,-0.54172 3.60938,-1.51172l7.72852,-7.76367l-0.55664,-0.55273c-1.853,-1.871 -2.48391,-4.60545 -1.75391,-7.06445z"></path></g></g></svg>