<svg version="1.1" xmlns="http://www.w3.org/2000/svg" xmlns:xlink="http://www.w3.org/1999/xlink" width="48px" height="48px" viewBox="0,0,256,256"><g fill="#ffffff" fill-rule="nonzero" stroke="none" stroke-width="1" stroke-linecap="butt" stroke-linejoin="miter" stroke-miterlimit="10" stroke-dasharray="" stroke-dashoffset="0" font-family="none" font-weight="none" font-size="none" text-anchor="none" style="mix-blend-mode: normal"><g transform="scale(5.33333,5.33333)"><path d="M11.5,6c-3.033,0 -5.5,2.467 -5.5,5.5v25c0,3.033 2.467,5.5 5.5,5.5h0.5v-14.5c0,-1.93 1.57,-3.5 3.5,-3.5h17c1.93,0 3.5,1.57 3.5,3.5v14.5h0.5c3.033,0 5.5,-2.467 5.5,-5.5v-21c0,-0.428 -0.18391,-0.83609 -0.50391,-1.12109l-9,-8c-0.146,-0.13 -0.31509,-0.22311 -0.49609,-0.28711v8.4082c0,1.93 -1.57,3.5 -3.5,3.5h-12c-1.93,0 -3.5,-1.57 -3.5,-3.5v-8.5zM16,6v8.5c0,0.276 0.224,0.5 0.5,0.5h12c0.276,0 0.5,-0.224 0.5,-0.5v-8.5zM15.5,27c-0.276,0 -0.5,0.224 -0.5,0.5v14.5h18v-14.5c0,-0.276 -0.224,-0.5 -0.5,-0.5z"></path></g></g></svg>