<svg version="1.1" xmlns="http://www.w3.org/2000/svg" xmlns:xlink="http://www.w3.org/1999/xlink" width="48px" height="48px" viewBox="0,0,256,256"><g transform=""><g fill="#ffffff" fill-rule="nonzero" stroke="none" stroke-width="1" stroke-linecap="butt" stroke-linejoin="miter" stroke-miterlimit="10" stroke-dasharray="" stroke-dashoffset="0" font-family="none" font-weight="none" font-size="none" text-anchor="none" style="mix-blend-mode: normal"><g transform="scale(5.33333,5.33333)"><path d="M12.5,4c-2.481,0 -4.5,2.019 -4.5,4.5v31c0,2.481 2.019,4.5 4.5,4.5h23c2.481,0 4.5,-2.019 4.5,-4.5v-19.5h-11.5c-2.481,0 -4.5,-2.019 -4.5,-4.5v-11.5zM27,4.87891v10.62109c0,0.827 0.673,1.5 1.5,1.5h10.62109zM23.99805,23c0.828,0 1.5,0.671 1.5,1.5v6.37891l1.43945,-1.43945c0.586,-0.586 1.53509,-0.586 2.12109,0c0.586,0.585 0.586,1.53609 0,2.12109l-4,4c-0.291,0.293 -0.67459,0.43945 -1.05859,0.43945h6.5c0.828,0 1.5,0.671 1.5,1.5c0,0.829 -0.672,1.5 -1.5,1.5h-13c-0.828,0 -1.5,-0.671 -1.5,-1.5c0,-0.829 0.672,-1.5 1.5,-1.5h6.5c-0.384,0 -0.76755,-0.14645 -1.06055,-0.43945l-4,-4c-0.586,-0.585 -0.586,-1.53609 0,-2.12109c0.586,-0.586 1.53509,-0.586 2.12109,0l1.4375,1.43945v-6.37891c0,-0.829 0.672,-1.5 1.5,-1.5z"></path></g></g></g></svg>