<svg version="1.1" xmlns="http://www.w3.org/2000/svg" xmlns:xlink="http://www.w3.org/1999/xlink" width="48px" height="48px" viewBox="0,0,256,256"><g fill="#ffffff" fill-rule="nonzero" stroke="none" stroke-width="1" stroke-linecap="butt" stroke-linejoin="miter" stroke-miterlimit="10" stroke-dasharray="" stroke-dashoffset="0" font-family="none" font-weight="none" font-size="none" text-anchor="none" style="mix-blend-mode: normal"><g transform="scale(5.33333,5.33333)"><path d="M10.5,6c-3.032,0 -5.5,2.468 -5.5,5.5v24.5c0,3.309 2.691,6 6,6h13.07422c-0.78,-1.21 -1.36108,-2.558 -1.70508,-4h-11.36914c-1.103,0 -2,-0.897 -2,-2v-20h30v6.60547c1.466,0.474 2.813,1.20381 4,2.13281v-13.23828c0,-3.032 -2.468,-5.5 -5.5,-5.5zM13.5,20c-0.54095,-0.00765 -1.04412,0.27656 -1.31683,0.74381c-0.27271,0.46725 -0.27271,1.04514 0,1.51238c0.27271,0.46725 0.77588,0.75146 1.31683,0.74381h2c0.54095,0.00765 1.04412,-0.27656 1.31683,-0.74381c0.27271,-0.46725 0.27271,-1.04514 0,-1.51238c-0.27271,-0.46725 -0.77588,-0.75146 -1.31683,-0.74381zM21.5,20c-0.828,0 -1.5,0.671 -1.5,1.5c0,0.829 0.672,1.5 1.5,1.5h8.49805c1.54,-0.643 3.22895,-1 5.00195,-1c0.302,0 0.59753,0.02492 0.89453,0.04492c0.066,-0.169 0.10547,-0.35192 0.10547,-0.54492c0,-0.829 -0.672,-1.5 -1.5,-1.5zM35,24c-6.075,0 -11,4.925 -11,11c0,6.075 4.925,11 11,11c6.075,0 11,-4.925 11,-11c0,-6.075 -4.925,-11 -11,-11zM13.5,26c-0.54095,-0.00765 -1.04412,0.27656 -1.31683,0.74381c-0.27271,0.46725 -0.27271,1.04514 0,1.51238c0.27271,0.46725 0.77588,0.75146 1.31683,0.74381h2c0.54095,0.00765 1.04412,-0.27656 1.31683,-0.74381c0.27271,-0.46725 0.27271,-1.04514 0,-1.51238c-0.27271,-0.46725 -0.77588,-0.75146 -1.31683,-0.74381zM21.5,26c-0.829,0 -1.5,0.671 -1.5,1.5c0,0.829 0.671,1.5 1.5,1.5h1.97461c0.575,-1.103 1.3042,-2.111 2.1582,-3zM35,30c5.182,0 7.75628,4.31309 7.86328,4.49609c0.181,0.312 0.181,0.69581 0,1.00781c-0.107,0.184 -2.68128,4.49609 -7.86328,4.49609c-5.182,0 -7.75628,-4.31309 -7.86328,-4.49609c-0.181,-0.312 -0.181,-0.69581 0,-1.00781c0.107,-0.183 2.68128,-4.49609 7.86328,-4.49609zM13.5,32c-0.54095,-0.00765 -1.04412,0.27656 -1.31683,0.74381c-0.27271,0.46725 -0.27271,1.04514 0,1.51238c0.27271,0.46725 0.77588,0.75146 1.31683,0.74381h2c0.54095,0.00765 1.04412,-0.27656 1.31683,-0.74381c0.27271,-0.46725 0.27271,-1.04514 0,-1.51238c-0.27271,-0.46725 -0.77588,-0.75146 -1.31683,-0.74381zM21.5,32c-0.829,0 -1.5,0.671 -1.5,1.5c0,0.829 0.671,1.5 1.5,1.5h0.5c0,-1.034 0.13333,-2.035 0.36133,-3zM35,32c-1.657,0 -3,1.343 -3,3c0,1.657 1.343,3 3,3c1.657,0 3,-1.343 3,-3c0,-1.657 -1.343,-3 -3,-3z"></path></g></g></svg>