<svg version="1.1" xmlns="http://www.w3.org/2000/svg" xmlns:xlink="http://www.w3.org/1999/xlink" width="48px" height="48px" viewBox="0,0,256,256"><g fill="#ffffff" fill-rule="nonzero" stroke="none" stroke-width="1" stroke-linecap="butt" stroke-linejoin="miter" stroke-miterlimit="10" stroke-dasharray="" stroke-dashoffset="0" font-family="none" font-weight="none" font-size="none" text-anchor="none" style="mix-blend-mode: normal"><g transform="scale(5.33333,5.33333)"><path d="M39,21h-0.58c-0.75,-7.29 -6.93,-13 -14.42,-13c-7.49,0 -13.67,5.71 -14.42,13h-0.58c-4.96,0 -9,4.04 -9,9c0,4.96 4.04,9 9,9h30c4.96,0 9,-4.04 9,-9c0,-4.96 -4.04,-9 -9,-9zM32.52,26.6l-7.5,7c-0.28,0.27 -0.65,0.4 -1.02,0.4c-0.37,0 -0.74,-0.13 -1.02,-0.4l-7.5,-7c-0.61,-0.57 -0.64,-1.52 -0.08,-2.12c0.57,-0.61 1.52,-0.64 2.12,-0.08l4.98,4.65v-11.55c0,-0.83 0.67,-1.5 1.5,-1.5c0.83,0 1.5,0.67 1.5,1.5v11.55l4.98,-4.65c0.6,-0.56 1.55,-0.53 2.12,0.08c0.56,0.6 0.53,1.55 -0.08,2.12z"></path></g></g></svg>