<svg version="1.1" xmlns="http://www.w3.org/2000/svg" xmlns:xlink="http://www.w3.org/1999/xlink" width="48px" height="48px" viewBox="0,0,256,256"><g fill="#ffffff" fill-rule="nonzero" stroke="none" stroke-width="1" stroke-linecap="butt" stroke-linejoin="miter" stroke-miterlimit="10" stroke-dasharray="" stroke-dashoffset="0" font-family="none" font-weight="none" font-size="none" text-anchor="none" style="mix-blend-mode: normal"><g transform="scale(5.33333,5.33333)"><path d="M8.5,8c-2.481,0 -4.5,2.019 -4.5,4.5v23c0,2.481 2.019,4.5 4.5,4.5h31c2.481,0 4.5,-2.019 4.5,-4.5v-18c0,-2.481 -2.019,-4.5 -4.5,-4.5h-15.45703l-4.4707,-3.72656c-0.986,-0.822 -2.23653,-1.27344 -3.51953,-1.27344zM22,16h4c0.552,0 1,0.447 1,1c0,0.553 -0.448,1 -1,1h-4c-0.552,0 -1,-0.447 -1,-1c0,-0.553 0.448,-1 1,-1zM22,21h4c0.552,0 1,0.447 1,1c0,0.553 -0.448,1 -1,1h-4c-0.552,0 -1,-0.447 -1,-1c0,-0.553 0.448,-1 1,-1zM22.73828,26h2.52344c0.443,0 0.83498,0.28884 0.95898,0.71484c0.294,1.011 0.7793,2.89116 0.7793,4.28516c0,1.657 -1.343,3 -3,3c-1.657,0 -3,-1.343 -3,-3c0,-1.394 0.4853,-3.27416 0.7793,-4.28516c0.124,-0.426 0.51598,-0.71484 0.95898,-0.71484zM24,30c-0.55228,0 -1,0.44772 -1,1c0,0.55228 0.44772,1 1,1c0.55228,0 1,-0.44772 1,-1c0,-0.55228 -0.44772,-1 -1,-1z"></path></g></g></svg>