<svg xmlns="http://www.w3.org/2000/svg" xmlns:xlink="http://www.w3.org/1999/xlink" viewBox="0,0,256,256" width="24px" height="24px"><g fill="#ffffff" fill-rule="nonzero" stroke="none" stroke-width="1" stroke-linecap="butt" stroke-linejoin="miter" stroke-miterlimit="10" stroke-dasharray="" stroke-dashoffset="0" font-family="none" font-weight="none" font-size="none" text-anchor="none" style="mix-blend-mode: normal"><g transform="scale(5.33333,5.33333)"><path d="M8.5,8c-2.481,0 -4.5,2.019 -4.5,4.5v23c0,0.417 0.07464,0.81231 0.18164,1.19531c0.041,-0.152 0.08267,-0.30412 0.13867,-0.45312l1.21875,-3.24219l1.07617,-2.86719l2.7207,-7.24219c0.874,-2.328 3.13119,-3.89062 5.61719,-3.89062h27.04688v-1.5c0,-2.481 -2.019,-4.5 -4.5,-4.5h-13.45703l-4.4707,-3.72656c-0.986,-0.822 -2.23653,-1.27344 -3.51953,-1.27344zM14.95313,22c-1.25,0 -2.36959,0.77531 -2.80859,1.94531l-5.01367,13.35156c-0.492,1.307 0.47409,2.70313 1.87109,2.70313h29.04492c1.25,0 2.36959,-0.77531 2.80859,-1.94531l5.00977,-13.33984c0.501,-1.309 -0.46519,-2.71484 -1.86719,-2.71484z"></path></g></g></svg>