<svg version="1.1" xmlns="http://www.w3.org/2000/svg" xmlns:xlink="http://www.w3.org/1999/xlink" width="48px" height="48px" viewBox="0,0,256,256"><g fill="#ffffff" fill-rule="nonzero" stroke="none" stroke-width="1" stroke-linecap="butt" stroke-linejoin="miter" stroke-miterlimit="10" stroke-dasharray="" stroke-dashoffset="0" font-family="none" font-weight="none" font-size="none" text-anchor="none" style="mix-blend-mode: normal"><g transform="scale(5.33333,5.33333)"><path d="M24.04883,2c-0.38678,-0.01207 -0.76326,0.12579 -1.05078,0.38477c0,0 -7.50788,6.61523 -16.49805,6.61523c-0.82839,0.00008 -1.49992,0.67161 -1.5,1.5v12.25977c0,6.67805 3.08941,17.66664 18.41797,24.12305c0.3722,0.15668 0.79186,0.15668 1.16406,0c15.32856,-6.45641 18.41797,-17.445 18.41797,-24.12305v-12.25977c-0.00008,-0.82839 -0.67161,-1.49992 -1.5,-1.5c-8.99017,0 -16.49805,-6.61523 -16.49805,-6.61523c-0.26249,-0.23649 -0.60002,-0.37275 -0.95312,-0.38477zM24,13c2.757,0 5,2.243 5,5c0,2.757 -2.243,5 -5,5c-2.757,0 -5,-2.243 -5,-5c0,-2.757 2.243,-5 5,-5zM17.5,27h13c1.378,0 2.5,1.122 2.5,2.5v1c0,0.446 -0.05039,0.88378 -0.15039,1.30078c-0.065,0.271 -0.2063,0.51884 -0.4043,0.71484c-2.271,2.247 -5.26931,3.48438 -8.44531,3.48438c-3.176,0 -6.17531,-1.23642 -8.44531,-3.48242c-0.198,-0.196 -0.33734,-0.44384 -0.40234,-0.71484c-0.101,-0.418 -0.15234,-0.85673 -0.15234,-1.30273v-1c0,-1.378 1.122,-2.5 2.5,-2.5z"></path></g></g></svg>