<svg version="1.1" xmlns="http://www.w3.org/2000/svg" xmlns:xlink="http://www.w3.org/1999/xlink" width="48px" height="48px" viewBox="0,0,256,256"><g fill="#ffffff" fill-rule="nonzero" stroke="none" stroke-width="1" stroke-linecap="butt" stroke-linejoin="miter" stroke-miterlimit="10" stroke-dasharray="" stroke-dashoffset="0" font-family="none" font-weight="none" font-size="none" text-anchor="none" style="mix-blend-mode: normal"><g transform="scale(5.33333,5.33333)"><path d="M20,3c-1.68219,0 -3.13488,0.72085 -4.3457,1.7168c-0.80527,-0.41273 -1.68,-0.7168 -2.6543,-0.7168c-3.29587,0 -6,2.70413 -6,6c0,2.2043 1.21281,4.13865 3,5.18164v21.31836c0,4.1245 3.3755,7.5 7.5,7.5h13c4.1245,0 7.5,-3.3755 7.5,-7.5v-0.5h0.5c4.1245,0 7.5,-3.3755 7.5,-7.5v-6c0,-2.4675 -2.0325,-4.5 -4.5,-4.5h-3.5v-2.81836c1.78719,-1.04299 3,-2.97734 3,-5.18164c0,-3.29587 -2.70414,-6 -6,-6c-1.34965,0 -2.50248,0.56491 -3.5,1.32031c-0.99752,-0.7554 -2.15036,-1.32031 -3.5,-1.32031c-1.24168,0 -2.31841,0.48327 -3.27148,1.13281c-1.26134,-1.2258 -2.83907,-2.13281 -4.72852,-2.13281zM20,6c1.42695,0 2.6569,0.73764 3.36914,1.85156c0.25405,0.39707 0.67996,0.65163 1.14999,0.68735c0.47003,0.03571 0.92951,-0.15158 1.24064,-0.50571c0.56147,-0.63905 1.34031,-1.0332 2.24023,-1.0332c0.94872,0 1.76905,0.44019 2.33008,1.14063c0.28473,0.35475 0.71504,0.56114 1.16992,0.56114c0.45488,0 0.88519,-0.2064 1.16992,-0.56114c0.56103,-0.70043 1.38135,-1.14062 2.33008,-1.14062c1.67413,0 3,1.32587 3,3c0,1.67413 -1.32587,3 -3,3c-0.94872,0 -1.76905,-0.44019 -2.33008,-1.14062c-0.34964,-0.43599 -0.91266,-0.64148 -1.46094,-0.5332c0,0 -0.29325,0.07498 -0.47266,0.16797c-0.1794,0.09299 -0.37028,0.22853 -0.54883,0.40625c-0.35709,0.35544 -0.6524,0.86379 -0.85547,1.53906c-0.40614,1.35055 -0.52128,3.41434 0.04492,7.14063c0.26779,1.76395 0.62305,2.67256 0.62305,4.41992c0,1.12234 -0.87766,2 -2,2c-1.12234,0 -2,-0.87766 -2,-2c0,-1.79153 0.30839,-2.67143 0.57813,-4.39648c0.58675,-3.75517 0.52101,-5.75671 0.16016,-7.07227c-0.18043,-0.65778 -0.45817,-1.16918 -0.84375,-1.5332c-0.19279,-0.18201 -0.40823,-0.31816 -0.61328,-0.4043c-0.20505,-0.08613 -0.53906,-0.13281 -0.53906,-0.13281c-0.54917,-0.04019 -1.07623,0.22371 -1.37305,0.6875c-0.71337,1.11455 -1.94219,1.85156 -3.36914,1.85156c-1.2452,0 -2.33841,-0.55828 -3.07422,-1.44141c-0.52059,-0.62454 -1.44394,-0.72068 -2.08203,-0.2168c-0.52651,0.41654 -1.14916,0.6582 -1.84375,0.6582c-1.67413,0 -3,-1.32587 -3,-3c0,-1.67413 1.32587,-3 3,-3c0.69459,0 1.31691,0.24209 1.84375,0.6582c0.63809,0.50389 1.56144,0.40774 2.08203,-0.2168c0.73581,-0.88238 1.82901,-1.44141 3.07422,-1.44141zM32.11133,15.17383c0.86389,0.49136 1.82418,0.82617 2.88867,0.82617v3.5v1.5h-2.49219c-0.0562,-0.2854 -0.11902,-0.57442 -0.16406,-0.87109c-0.40439,-2.66136 -0.34969,-4.05521 -0.23242,-4.95508zM15.6543,15.28125c1.21098,0.9968 2.66333,1.71875 4.3457,1.71875c1.50487,0 2.80843,-0.58764 3.95313,-1.40234c0.04582,0.94415 0.01693,2.25765 -0.33984,4.54102c-0.04634,0.29638 -0.10103,0.57882 -0.1543,0.86133h-5.45898c-1.105,0 -2,0.895 -2,2v13.5c0,0.828 -0.672,1.5 -1.5,1.5c-0.828,0 -1.5,-0.672 -1.5,-1.5v-15.5v-5c0.9742,0 1.8488,-0.30553 2.6543,-0.71875zM38,21h3.5c0.8465,0 1.5,0.6535 1.5,1.5v6c0,2.5035 -1.9965,4.5 -4.5,4.5h-0.5z"></path></g></g></svg>