<svg version="1.1" xmlns="http://www.w3.org/2000/svg" xmlns:xlink="http://www.w3.org/1999/xlink" width="48px" height="48px" viewBox="0,0,256,256"><g fill="#ffffff" fill-rule="nonzero" stroke="none" stroke-width="1" stroke-linecap="butt" stroke-linejoin="miter" stroke-miterlimit="10" stroke-dasharray="" stroke-dashoffset="0" font-family="none" font-weight="none" font-size="none" text-anchor="none" style="mix-blend-mode: normal"><g transform="scale(5.33333,5.33333)"><path d="M24,4c-11.028,0 -20,8.972 -20,20c0,11.028 8.972,20 20,20c11.028,0 20,-8.972 20,-20c0,-11.028 -8.972,-20 -20,-20zM25.5,33.5c0,0.828 -0.672,1.5 -1.5,1.5c-0.828,0 -1.5,-0.672 -1.5,-1.5v-11c0,-0.828 0.672,-1.5 1.5,-1.5c0.828,0 1.5,0.672 1.5,1.5zM24,18c-1.105,0 -2,-0.895 -2,-2c0,-1.105 0.895,-2 2,-2c1.105,0 2,0.895 2,2c0,1.105 -0.895,2 -2,2z"></path></g></g></svg>