<svg version="1.1" xmlns="http://www.w3.org/2000/svg" xmlns:xlink="http://www.w3.org/1999/xlink" width="48px" height="48px" viewBox="0,0,256,256"><g fill="#ffffff" fill-rule="nonzero" stroke="none" stroke-width="1" stroke-linecap="butt" stroke-linejoin="miter" stroke-miterlimit="10" stroke-dasharray="" stroke-dashoffset="0" font-family="none" font-weight="none" font-size="none" text-anchor="none" style="mix-blend-mode: normal"><g transform="scale(5.33333,5.33333)"><path d="M38.657,18.536l2.44,-2.44c2.534,-2.534 2.534,-6.658 0,-9.193c-1.227,-1.226 -2.858,-1.9 -4.597,-1.9c-1.739,0 -3.371,0.675 -4.597,1.901l-2.439,2.439zM27.343,11.464l-18.069,18.069c-0.385,0.385 -0.678,0.86 -0.848,1.375l-3.35,10.121c-0.179,0.538 -0.038,1.131 0.363,1.532c0.287,0.286 0.669,0.439 1.061,0.439c0.158,0 0.317,-0.025 0.472,-0.076l10.118,-3.351c0.517,-0.17 0.993,-0.463 1.378,-0.849l18.068,-18.068z"></path></g></g></svg>