<svg version="1.1" xmlns="http://www.w3.org/2000/svg" xmlns:xlink="http://www.w3.org/1999/xlink" width="48px" height="48px" viewBox="0,0,256,256"><g fill="#ffffff" fill-rule="nonzero" stroke="none" stroke-width="1" stroke-linecap="butt" stroke-linejoin="miter" stroke-miterlimit="10" stroke-dasharray="" stroke-dashoffset="0" font-family="none" font-weight="none" font-size="none" text-anchor="none" style="mix-blend-mode: normal"><g transform="scale(5.33333,5.33333)"><path d="M44,24c0,11.028 -8.972,20 -20,20c-3.183,0 -6.338,-0.77 -9.165,-2.229l-7.661,2.139c-0.221,0.06 -0.446,0.09 -0.67,0.09c-0.655,0 -1.296,-0.258 -1.771,-0.732c-0.637,-0.638 -0.882,-1.572 -0.64,-2.439l2.139,-7.657c-1.462,-2.83 -2.232,-5.987 -2.232,-9.172c0,-11.029 8.972,-20 20,-20c11.028,0 20,8.971 20,20zM25.5,27.5c0,-1.54 0.754,-2.244 1.797,-3.22c1.204,-1.125 2.703,-2.525 2.703,-5.28c0,-3.309 -2.691,-6 -6,-6c-3.309,0 -6,2.691 -6,6c0,0.828 0.671,1.5 1.5,1.5c0.829,0 1.5,-0.672 1.5,-1.5c0,-1.654 1.346,-3 3,-3c1.654,0 3,1.346 3,3c0,1.388 -0.601,2.014 -1.751,3.089c-1.225,1.144 -2.749,2.568 -2.749,5.411c0,0.828 0.671,1.5 1.5,1.5c0.829,0 1.5,-0.672 1.5,-1.5zM24,31c-1.105,0 -2,0.895 -2,2c0,1.105 0.895,2 2,2c1.105,0 2,-0.895 2,-2c0,-1.105 -0.895,-2 -2,-2z"></path></g></g></svg>