<svg version="1.1" xmlns="http://www.w3.org/2000/svg" xmlns:xlink="http://www.w3.org/1999/xlink" viewBox="0 0 172 172"><g fill="none" fill-rule="nonzero" stroke="none" stroke-width="1" stroke-linecap="butt" stroke-linejoin="miter" stroke-miterlimit="10" stroke-dasharray="" stroke-dashoffset="0" font-family="none" font-weight="none" font-size="none" text-anchor="none" style="mix-blend-mode: normal"><path d="M0,172v-172h172v172z" fill="none"></path><g fill="#ffffff"><path d="M43,14.33333c-7.88333,0 -14.33333,6.45 -14.33333,14.33333v114.66667c0,7.88333 6.45,14.33333 14.33333,14.33333h36.39323c-4.72283,-8.1485 -7.52623,-17.54803 -7.71257,-27.60286c-0.46583,-25.00451 15.5389,-46.63574 39.05274,-55.14974c11.64583,-4.214 22.5881,-3.95174 32.59993,-1.37174v-13.24154c0,-1.89917 -0.75228,-3.72689 -2.09961,-5.06706l-38.80078,-38.80078c-1.34733,-1.34733 -3.1679,-2.09961 -5.06706,-2.09961zM93.16667,25.08333l39.41667,39.41667h-39.41667zM129.014,86c-23.66165,0 -43,19.33835 -43,43c0,8.94027 2.76323,17.27286 7.46061,24.1735l-6.60677,6.60677c-1.86333,1.86333 -0.53773,5.05306 2.0996,5.05306h17.27279c2.35392,0.4933 4.79834,-0.22688 6.50879,-1.91764c1.78583,-1.76417 2.51856,-4.33405 1.93164,-6.77474v-17.00684c0,-2.63733 -3.18973,-3.95577 -5.05306,-2.0996l-5.73893,5.73893c-2.24031,-4.0799 -3.54134,-8.75481 -3.54134,-13.77344c0,-15.91269 12.75399,-28.66667 28.66667,-28.66667c15.91269,0 28.66667,12.75398 28.66667,28.66667c0,13.94294 -9.86343,25.44213 -22.92774,28.09277c-3.88073,0.78465 -6.3906,4.56669 -5.60595,8.44743c0.78465,3.88073 4.56669,6.3906 8.44743,5.60595c19.64436,-3.98568 34.41959,-21.41676 34.41959,-42.14616c0,-23.66165 -19.33835,-43 -43,-43z"></path></g></g></svg>