<svg version="1.1" xmlns="http://www.w3.org/2000/svg" xmlns:xlink="http://www.w3.org/1999/xlink" viewBox="0 0 172 172"><g fill="none" fill-rule="nonzero" stroke="none" stroke-width="1" stroke-linecap="butt" stroke-linejoin="miter" stroke-miterlimit="10" stroke-dasharray="" stroke-dashoffset="0" font-family="none" font-weight="none" font-size="none" text-anchor="none" style="mix-blend-mode: normal"><path d="M0,172v-172h172v172z" fill="none"></path><g fill="#ffffff"><path d="M35.83333,21.5c-7.91917,0 -14.33333,6.41417 -14.33333,14.33333v100.33333c0,7.88333 6.37833,14.33333 14.33333,14.33333h40.04655c-2.494,-6.149 -3.92857,-12.83964 -4.12923,-19.83431c-4.42184,-3.9345 -7.25065,-9.59919 -7.25065,-15.99902c0,-11.25883 8.63034,-20.36486 19.63834,-21.31803c10.50633,-13.201 26.67982,-21.68197 44.86166,-21.68197c7.611,0 14.8565,1.51855 21.5,4.21322v-19.77832c0,-3.79833 -1.51172,-7.44661 -4.19922,-10.13411l-20.26822,-20.26823c-2.68751,-2.6875 -6.33578,-4.19922 -10.13412,-4.19922zM43,35.83333h57.33333c3.956,0 7.16667,3.21067 7.16667,7.16667v14.33333c0,3.956 -3.21067,7.16667 -7.16667,7.16667h-57.33333c-3.956,0 -7.16667,-3.21067 -7.16667,-7.16667v-14.33333c0,-3.956 3.21067,-7.16667 7.16667,-7.16667zM129,86c-23.65,0 -43,19.35 -43,43c0,23.65 19.35,43 43,43c23.65,0 43,-19.35 43,-43c0,-23.65 -19.35,-43 -43,-43zM149.07226,109.6556l10.02214,10.02214l-33.67774,33.69173l-22.92774,-22.94173l10.02214,-10.02214l12.9056,12.8916z"></path></g></g></svg>