<svg version="1.1" xmlns="http://www.w3.org/2000/svg" xmlns:xlink="http://www.w3.org/1999/xlink" width="48px" height="48px" viewBox="0,0,256,256"><g fill="#ffffff" fill-rule="nonzero" stroke="none" stroke-width="1" stroke-linecap="butt" stroke-linejoin="miter" stroke-miterlimit="10" stroke-dasharray="" stroke-dashoffset="0" font-family="none" font-weight="none" font-size="none" text-anchor="none" style="mix-blend-mode: normal"><g transform="scale(5.33333,5.33333)"><path d="M17,2c-5.514,0 -10,4.486 -10,10c0,5.514 4.486,10 10,10c5.514,0 10,-4.486 10,-10c0,-5.514 -4.486,-10 -10,-10zM6.22266,26c-2.053,0 -3.72266,1.78452 -3.72266,3.97852v1.52148c0,3.281 1.69539,6.13234 4.77539,8.02734c2.591,1.595 6.04461,2.47266 9.72461,2.47266c3.131,0 6.36437,-0.66788 8.98438,-2.04687c-1.241,-1.666 -1.98437,-3.72113 -1.98437,-5.95312c0,-3.259 1.57414,-6.14956 3.99414,-7.97656c-0.073,-0.004 -0.1418,-0.02344 -0.2168,-0.02344zM34,26c-4.411,0 -8,3.589 -8,8c0,4.411 3.589,8 8,8c1.665,0 3.21019,-0.51272 4.49219,-1.38672l4.94727,4.94727c0.293,0.294 0.67655,0.43945 1.06055,0.43945c0.384,0 0.76755,-0.14645 1.06055,-0.43945c0.585,-0.586 0.585,-1.53509 0,-2.12109l-4.94531,-4.94727c0.873,-1.282 1.38477,-2.82719 1.38477,-4.49219c0,-4.411 -3.589,-8 -8,-8zM34,29c2.757,0 5,2.243 5,5c0,2.757 -2.243,5 -5,5c-2.757,0 -5,-2.243 -5,-5c0,-2.757 2.243,-5 5,-5z"></path></g></g></svg>