<svg version="1.1" xmlns="http://www.w3.org/2000/svg" xmlns:xlink="http://www.w3.org/1999/xlink" width="48px" height="48px" viewBox="0,0,256,256"><g fill="#ffffff" fill-rule="nonzero" stroke="none" stroke-width="1" stroke-linecap="butt" stroke-linejoin="miter" stroke-miterlimit="10" stroke-dasharray="" stroke-dashoffset="0" font-family="none" font-weight="none" font-size="none" text-anchor="none" style="mix-blend-mode: normal"><g transform="scale(5.33333,5.33333)"><path d="M37.498,11c-6.527,0 -10.107,4.632 -10.47,9.457c-0.868,-0.242 -1.836,-0.457 -2.53,-0.457c-3.834,0 -6.555,1.648 -7.776,4.56c-0.778,-0.871 -1.737,-1.752 -2.91,-2.682c-1.352,-1.074 -1.762,-3.3 -1.837,-4.889h0.508c0.734,0 1.446,-0.303 1.954,-0.832l2.93,-3.047c0.568,-0.59 0.838,-1.395 0.739,-2.208c-0.1,-0.812 -0.553,-1.528 -1.243,-1.964l-0.113,-0.072c-1.172,-0.742 -2.83,-1.792 -3.895,-2.435c-1.263,-0.798 -2.881,-0.62 -3.906,0.408c-3.942,3.723 -5.94,6.675 -5.938,8.772l-0.002,0.154c-0.053,3.228 0.077,11.401 2.425,17.583c1.781,4.691 7.176,9.652 9.064,9.652c0.527,0 1.113,-0.185 1.855,-0.418c0.825,-0.259 1.849,-0.582 2.645,-0.582c0.446,0 0.95,0.134 1.588,0.305c1.101,0.293 2.607,0.695 4.912,0.695c8.34,0 12.186,-6.933 13.278,-11.308c2.923,-0.991 7.222,-3.808 7.222,-9.192c0,-7.201 -3.178,-11.5 -8.5,-11.5zM37.593,29.756c-0.433,0.82 -1.089,2.096 -1.332,2.744c-0.829,2.211 -1.462,3.035 -3.056,4.801c-1.818,2.012 -5.882,3.74 -11.099,2.699c-2.782,-0.555 -4.951,-0.307 -6.297,-0.008c-0.243,0.076 -0.509,-0.006 -0.666,-0.206c-0.158,-0.2 -0.175,-0.477 -0.043,-0.696c1.02,-1.41 3.11,-3.459 6.898,-4.09c6.407,-1.068 8.76,-3.656 9.557,-5.068c0.188,-0.524 0.754,-0.807 1.286,-0.646c1.346,0.371 2.886,0.404 4.349,-0.011c0.131,-0.04 0.273,0.002 0.361,0.107c0.088,0.105 0.104,0.253 0.042,0.374z"></path></g></g></svg>