<?xml version='1.0' encoding='UTF-8'?>
<svg x="0px" y="0px" viewBox="0 0 32 32" version="1.1" xmlns="http://www.w3.org/2000/svg" xmlns:xlink="http://www.w3.org/1999/xlink" xml:space="preserve" id="Layer_1" style="enable-background:new 0 0 32 32">
  <style type="text/css">
	.Red{fill:#D11C1C;}
	.Black{fill:#727272;}
	.Blue{fill:#1177D7;}
	.Green{fill:#039C23;}
	.Yellow{fill:#FFB115;}
	.White{fill:#FFFFFF;}
	.st0{opacity:0.5;}
	.st1{opacity:0.75;}
	.st2{opacity:0.25;}
</style>
  <g id="ViewSettings_1_">
    <path d="M32,9V7l-2.5-0.6C29.4,6,29.2,5.6,29,5.2l1.5-2.1l-1.6-1.6L26.8,3c-0.4-0.2-0.8-0.4-1.2-0.5L25,0h-2   l-0.6,2.5C22,2.6,21.6,2.8,21.2,3l-2-1.5l-1.7,1.7l1.5,2c-0.2,0.4-0.4,0.8-0.5,1.2L16,7v2l2.5,0.6c0.1,0.4,0.3,0.8,0.5,1.2   l-1.5,2.1l1.6,1.6l2.1-1.5c0.4,0.2,0.8,0.4,1.2,0.5L23,16h2l0.6-2.5c0.4-0.1,0.8-0.3,1.2-0.5l2.1,1.5l1.6-1.6L29,10.8   c0.2-0.4,0.4-0.8,0.5-1.2L32,9z M24,10c-1.1,0-2-0.9-2-2c0-1.1,0.9-2,2-2s2,0.9,2,2C26,9.1,25.1,10,24,10z M18,21   c0-0.3,0-0.6-0.1-0.8l2.1-1.8l-0.8-1.9l-2.7,0.2c-0.3-0.4-0.7-0.8-1.2-1.2l0.2-2.7L13.6,12l-1.8,2.1C11.6,14,11.3,14,11,14   s-0.6,0-0.8,0.1L8.4,12l-1.9,0.8l0.2,2.7c-0.4,0.3-0.8,0.7-1.2,1.2l-2.7-0.2L2,18.4l2.1,1.8C4,20.4,4,20.7,4,21s0,0.6,0.1,0.8   L2,23.6l0.8,1.9l2.7-0.2c0.3,0.4,0.7,0.8,1.2,1.2l-0.2,2.7L8.4,30l1.8-2.1c0.3,0,0.5,0.1,0.8,0.1s0.6,0,0.8-0.1l1.8,2.1l1.9-0.8   l-0.2-2.7c0.4-0.3,0.8-0.7,1.2-1.2l2.7,0.2l0.8-1.9l-2.1-1.8C18,21.6,18,21.3,18,21z M11,24c-1.7,0-3-1.3-3-3s1.3-3,3-3s3,1.3,3,3   S12.7,24,11,24z" class="Black" />
  </g>
</svg>