<svg version="1.1" xmlns="http://www.w3.org/2000/svg" xmlns:xlink="http://www.w3.org/1999/xlink" viewBox="0 0 172 172"><g fill="none" fill-rule="nonzero" stroke="none" stroke-width="1" stroke-linecap="butt" stroke-linejoin="miter" stroke-miterlimit="10" stroke-dasharray="" stroke-dashoffset="0" font-family="none" font-weight="none" font-size="none" text-anchor="none" style="mix-blend-mode: normal"><path d="M0,172v-172h172v172z" fill="none"></path><g fill="#ffffff"><path d="M143.33333,43h-51.39933c-3.79833,0 -7.44617,-1.51217 -10.13367,-4.19967l-5.934,-5.934c-2.6875,-2.6875 -6.33533,-4.19967 -10.13367,-4.19967h-37.066c-7.88333,0 -14.33333,6.45 -14.33333,14.33333v86c0,7.88333 6.45,14.33333 14.33333,14.33333h114.66667c7.88333,0 14.33333,-6.45 14.33333,-14.33333v-71.66667c0,-7.88333 -6.45,-14.33333 -14.33333,-14.33333zM107.25633,102.95633l-17.2,17.2c-2.24317,2.24317 -5.8695,2.24317 -8.1055,0l-17.2,-17.2c-1.10367,-1.10367 -1.68417,-2.56567 -1.68417,-4.05633c0,-0.73817 0.14333,-1.4835 0.43717,-2.193c0.88867,-2.14283 2.98133,-3.54033 5.29617,-3.54033h10.03333v-14.33333c0,-3.956 3.21067,-7.16667 7.16667,-7.16667c3.956,0 7.16667,3.21067 7.16667,7.16667v14.33333h10.03333c2.31483,0 4.4075,1.3975 5.29617,3.54033c0.88867,2.15 0.40133,4.60817 -1.23983,6.24933z"></path></g></g></svg>