<svg version="1.1" xmlns="http://www.w3.org/2000/svg" xmlns:xlink="http://www.w3.org/1999/xlink" viewBox="0 0 172 172"><g fill="none" fill-rule="nonzero" stroke="none" stroke-width="1" stroke-linecap="butt" stroke-linejoin="miter" stroke-miterlimit="10" stroke-dasharray="" stroke-dashoffset="0" font-family="none" font-weight="none" font-size="none" text-anchor="none" style="mix-blend-mode: normal"><path d="M0,172v-172h172v172z" fill="none"></path><g fill="#ffffff"><path d="M78.83333,14.33333c-3.956,0 -7.16667,3.21067 -7.16667,7.16667v57.33333h-25.08333c-1.97902,0 -3.58333,1.60431 -3.58333,3.58333c0.00014,0.95031 0.37777,1.86164 1.0498,2.53353c0.07162,0.07315 0.14634,0.1432 0.22396,0.20995l36.58919,34.50359l0.23795,0.22396c1.32656,1.24737 3.07819,1.94302 4.89909,1.94564c1.8209,-0.00261 3.57253,-0.69826 4.89909,-1.94564l0.09798,-0.08399c0.02354,-0.02782 0.04687,-0.05581 0.06998,-0.08399l36.5752,-34.48958c0.07258,-0.06249 0.14262,-0.12786 0.20996,-0.19597l0.05599,-0.04199c0.01411,-0.01388 0.02811,-0.02788 0.042,-0.04199c0.67204,-0.6719 1.04966,-1.58323 1.0498,-2.53353c0,-1.97902 -1.60431,-3.58333 -3.58333,-3.58333h-25.08333v-57.33333c0,-3.956 -3.21067,-7.16667 -7.16667,-7.16667h-7.16667zM21.5,143.33333c-2.58456,-0.03655 -4.98858,1.32136 -6.29153,3.55376c-1.30295,2.2324 -1.30295,4.99342 0,7.22582c1.30295,2.2324 3.70697,3.59031 6.29153,3.55376h129c2.58456,0.03655 4.98858,-1.32136 6.29153,-3.55376c1.30295,-2.2324 1.30295,-4.99342 0,-7.22582c-1.30295,-2.2324 -3.70697,-3.59031 -6.29153,-3.55376z"></path></g></g></svg>