<?xml version="1.0" encoding="UTF-8"?>
<svg xmlns="http://www.w3.org/2000/svg" xmlns:xlink="http://www.w3.org/1999/xlink" viewBox="0 0 32 32" width="32px" height="32px">
<g id="surface58756745">
<path style=" stroke:none;fill-rule:nonzero;fill:rgb(100%,100%,100%);fill-opacity:1;" d="M 16 2.667969 C 8.636719 2.667969 2.667969 8.636719 2.667969 16 C 2.667969 23.363281 8.636719 29.332031 16 29.332031 C 23.363281 29.332031 29.332031 23.363281 29.332031 16 C 29.332031 8.636719 23.363281 2.667969 16 2.667969 Z M 16 22.667969 C 15.265625 22.667969 14.667969 22.070312 14.667969 21.332031 L 14.667969 16 C 14.667969 15.265625 15.265625 14.667969 16 14.667969 C 16.734375 14.667969 17.332031 15.265625 17.332031 16 L 17.332031 21.332031 C 17.332031 22.070312 16.734375 22.667969 16 22.667969 Z M 16.667969 12 L 15.332031 12 C 14.964844 12 14.667969 11.703125 14.667969 11.332031 L 14.667969 10 C 14.667969 9.632812 14.964844 9.332031 15.332031 9.332031 L 16.667969 9.332031 C 17.035156 9.332031 17.332031 9.632812 17.332031 10 L 17.332031 11.332031 C 17.332031 11.703125 17.035156 12 16.667969 12 Z M 16.667969 12 "/>
</g>
</svg>
