<svg version="1.1" xmlns="http://www.w3.org/2000/svg" xmlns:xlink="http://www.w3.org/1999/xlink" viewBox="0 0 172 172"><g fill="none" fill-rule="nonzero" stroke="none" stroke-width="1" stroke-linecap="butt" stroke-linejoin="miter" stroke-miterlimit="10" stroke-dasharray="" stroke-dashoffset="0" font-family="none" font-weight="none" font-size="none" text-anchor="none" style="mix-blend-mode: normal"><path d="M0,172v-172h172v172z" fill="none"></path><g id="original-icon" fill="#ffffff"><path d="M50.19466,14.34733c-1.52829,0 -3.06263,0.57109 -4.22721,1.73568l-24.53743,26.46908c-2.69467,2.9025 -0.63862,7.61458 3.31738,7.61458h18.2526v35.83333c-0.03655,2.58456 1.32136,4.98858 3.55376,6.29153c2.2324,1.30295 4.99342,1.30295 7.22582,0c2.2324,-1.30295 3.59031,-3.70697 3.55376,-6.29153v-35.83333h18.29459c3.96317,0 6.01922,-4.71208 3.31739,-7.61458l-24.53743,-26.46908c-1.16458,-1.16458 -2.68492,-1.73568 -4.21322,-1.73568zM121.83333,21.5c-3.956,0 -7.16667,3.21067 -7.16667,7.16667c0,3.956 3.21067,7.16667 7.16667,7.16667c3.956,0 7.16667,-3.21067 7.16667,-7.16667c0,-3.956 -3.21067,-7.16667 -7.16667,-7.16667zM121.83333,50.16667c-3.956,0 -7.16667,3.21067 -7.16667,7.16667c0,3.956 3.21067,7.16667 7.16667,7.16667c3.956,0 7.16667,-3.21067 7.16667,-7.16667c0,-3.956 -3.21067,-7.16667 -7.16667,-7.16667zM121.72135,78.73535c-3.95253,0.06178 -7.10882,3.312 -7.05469,7.26465v35.83333h-18.2526c-3.956,0 -6.01205,4.71208 -3.31739,7.61458l24.53743,26.46907c2.32917,2.32917 6.11127,2.32917 8.44043,0l24.53743,-26.46907c2.70183,-2.9025 0.64578,-7.61458 -3.31739,-7.61458h-18.29459v-35.83333c0.02653,-1.93715 -0.73227,-3.80254 -2.10349,-5.17112c-1.37122,-1.36858 -3.23806,-2.12378 -5.17516,-2.09353zM50.16667,107.5c-3.956,0 -7.16667,3.21067 -7.16667,7.16667c0,3.956 3.21067,7.16667 7.16667,7.16667c3.956,0 7.16667,-3.21067 7.16667,-7.16667c0,-3.956 -3.21067,-7.16667 -7.16667,-7.16667zM50.16667,136.16667c-3.956,0 -7.16667,3.21067 -7.16667,7.16667c0,3.956 3.21067,7.16667 7.16667,7.16667c3.956,0 7.16667,-3.21067 7.16667,-7.16667c0,-3.956 -3.21067,-7.16667 -7.16667,-7.16667z"></path></g></g></svg>