<svg version="1.1" xmlns="http://www.w3.org/2000/svg" xmlns:xlink="http://www.w3.org/1999/xlink" viewBox="0 0 172 172"><g fill="none" fill-rule="nonzero" stroke="none" stroke-width="1" stroke-linecap="butt" stroke-linejoin="miter" stroke-miterlimit="10" stroke-dasharray="" stroke-dashoffset="0" font-family="none" font-weight="none" font-size="none" text-anchor="none" style="mix-blend-mode: normal"><path d="M0,172v-172h172v172z" fill="none"></path><g fill="#ffffff"><path d="M86,21.5c-35.53603,0 -64.5,28.96397 -64.5,64.5c0,2.42147 0.14486,4.81269 0.40592,7.16667h-0.40592c-3.956,0 -7.16667,3.21067 -7.16667,7.16667v35.83333c0,7.91917 6.41417,14.33333 14.33333,14.33333h84.4183c0.25083,-0.2795 0.44153,-0.59551 0.71386,-0.86784l2.71549,-2.71549l-2.71549,-2.71549c-8.385,-8.37783 -8.385,-22.02451 0,-30.40235c8.37783,-8.385 22.02451,-8.385 30.40235,0l2.71549,2.71549l2.71549,-2.71549c2.28617,-2.28617 5.05821,-3.85007 7.82455,-4.11523v-10.34408c0,0 0.20996,-6.17285 -6.9567,-6.17285h-0.40593c0.26107,-2.35398 0.40593,-4.74519 0.40593,-7.16667c0,-35.53603 -28.96397,-64.5 -64.5,-64.5zM86,35.83333c27.78864,0 50.16667,22.37803 50.16667,50.16667c0,2.43885 -0.238,4.8209 -0.57389,7.16667h-37.19108c1.26198,-2.17784 1.92819,-4.64961 1.93164,-7.16667c0,-7.91608 -6.41725,-14.33333 -14.33333,-14.33333c-7.91608,0 -14.33333,6.41725 -14.33333,14.33333c0.0077,2.51833 0.67877,4.99018 1.94564,7.16667h-37.20508c-0.33589,-2.34576 -0.57389,-4.72781 -0.57389,-7.16667c0,-11.29619 3.75215,-21.65613 10.00814,-30.02441l10.2041,10.2041c2.72333,2.72333 7.01202,2.42256 9.72819,-0.30794c0.03583,-0.03583 0.06215,-0.06931 0.09798,-0.09798c2.7305,-2.71617 3.03128,-7.00486 0.30794,-9.72819l-10.2041,-10.2041c8.36828,-6.25599 18.72822,-10.00814 30.02441,-10.00814zM129,121.83333c-1.83377,0 -3.66597,0.69853 -5.06706,2.09961c-2.80217,2.795 -2.80217,7.33911 0,10.13411l12.84961,12.84961l-12.84961,12.84961c-2.80217,2.80217 -2.80217,7.33911 0,10.13411c2.80217,2.80217 7.33911,2.80217 10.13411,0l12.84961,-12.84961l12.84961,12.84961c2.795,2.80217 7.33194,2.80217 10.13411,0c2.80217,-2.795 2.80217,-7.33194 0,-10.13411l-12.84961,-12.84961l12.84961,-12.84961c2.795,-2.795 2.795,-7.33911 0,-10.13411c-2.80217,-2.80217 -7.33911,-2.80217 -10.13411,0l-12.84961,12.84961l-12.84961,-12.84961c-1.3975,-1.40108 -3.23328,-2.09961 -5.06706,-2.09961z"></path></g></g></svg>